<svg version="1.0" xmlns="http://www.w3.org/2000/svg" width="512" height="512" viewBox="0 0 512 512"><path fill="#FFF" d="M0 0H13V13H0z"/><path fill="#FFF" d="M11 0H24V13H11z"/><path fill="#FFF" d="M23 0H36V13H23z"/><path fill="#FFF" d="M35 0H48V13H35z"/><path fill="#FFF" d="M47 0H60V13H47z"/><path fill="#FFF" d="M59 0H72V13H59z"/><path fill="#FFF" d="M71 0H84V13H71z"/><path fill="#FFF" d="M83 0H96V13H83z"/><path fill="#FFF" d="M95 0H108V13H95z"/><path fill="#FFF" d="M107 0H120V13H107z"/><path fill="#FFF" d="M119 0H132V13H119z"/><path fill="#FFF" d="M131 0H144V13H131z"/><path fill="#FFF" d="M143 0H156V13H143z"/><path fill="#FFF" d="M155 0H168V13H155z"/><path fill="#FFF" d="M167 0H180V13H167z"/><path fill="#FFF" d="M179 0H192V13H179z"/><path fill="#FFF" d="M191 0H204V13H191z"/><path fill="#FFF" d="M203 0H216V13H203z"/><path fill="#FFF" d="M215 0H228V13H215z"/><path fill="#FFF" d="M227 0H240V13H227z"/><path fill="#FFF" d="M239 0H252V13H239z"/><path fill="#FFF" d="M251 0H264V13H251z"/><path fill="#FFF" d="M263 0H276V13H263z"/><path fill="#FFF" d="M275 0H288V13H275z"/><path fill="#FFF" d="M287 0H300V13H287z"/><path fill="#FFF" d="M299 0H312V13H299z"/><path fill="#FFF" d="M311 0H324V13H311z"/><path fill="#FFF" d="M323 0H336V13H323z"/><path fill="#FFF" d="M335 0H348V13H335z"/><path fill="#FFF" d="M347 0H360V13H347z"/><path fill="#FFF" d="M359 0H372V13H359z"/><path fill="#FFF" d="M371 0H384V13H371z"/><path fill="#FFF" d="M383 0H396V13H383z"/><path fill="#FFF" d="M395 0H408V13H395z"/><path fill="#FFF" d="M407 0H420V13H407z"/><path fill="#FFF" d="M419 0H432V13H419z"/><path fill="#FFF" d="M431 0H444V13H431z"/><path fill="#FFF" d="M443 0H456V13H443z"/><path fill="#FFF" d="M455 0H468V13H455z"/><path fill="#FFF" d="M467 0H512V13H467zM0 11H13V24H0z"/><path fill="#FFF" d="M11 11H24V24H11z"/><path fill="#FFF" d="M23 11H36V24H23z"/><path fill="#FFF" d="M35 11H48V24H35z"/><path fill="#FFF" d="M47 11H60V24H47z"/><path fill="#FFF" d="M59 11H72V24H59z"/><path fill="#FFF" d="M71 11H84V24H71z"/><path fill="#FFF" d="M83 11H96V24H83z"/><path fill="#FFF" d="M95 11H108V24H95z"/><path fill="#FFF" d="M107 11H120V24H107z"/><path fill="#FFF" d="M119 11H132V24H119z"/><path fill="#FFF" d="M131 11H144V24H131z"/><path fill="#FFF" d="M143 11H156V24H143z"/><path fill="#FFF" d="M155 11H168V24H155z"/><path fill="#FFF" d="M167 11H180V24H167z"/><path fill="#FFF" d="M179 11H192V24H179z"/><path fill="#FFF" d="M191 11H204V24H191z"/><path fill="#FFF" d="M203 11H216V24H203z"/><path fill="#FFF" d="M215 11H228V24H215z"/><path fill="#FFF" d="M227 11H240V24H227z"/><path fill="#FFF" d="M239 11H252V24H239z"/><path fill="#FFF" d="M251 11H264V24H251z"/><path fill="#FFF" d="M263 11H276V24H263z"/><path fill="#FFF" d="M275 11H288V24H275z"/><path fill="#FFF" d="M287 11H300V24H287z"/><path fill="#FFF" d="M299 11H312V24H299z"/><path fill="#FFF" d="M311 11H324V24H311z"/><path fill="#FFF" d="M323 11H336V24H323z"/><path fill="#FFF" d="M335 11H348V24H335z"/><path fill="#FFF" d="M347 11H360V24H347z"/><path fill="#FFF" d="M359 11H372V24H359z"/><path fill="#FFF" d="M371 11H384V24H371z"/><path fill="#FFF" d="M383 11H396V24H383z"/><path fill="#FFF" d="M395 11H408V24H395z"/><path fill="#FFF" d="M407 11H420V24H407z"/><path fill="#FFF" d="M419 11H432V24H419z"/><path fill="#FFF" d="M431 11H444V24H431z"/><path fill="#FFF" d="M443 11H456V24H443z"/><path fill="#FFF" d="M455 11H468V24H455z"/><path fill="#FFF" d="M467 11H512V24H467zM0 23H13V36H0z"/><path fill="#FFF" d="M11 23H24V36H11z"/><path fill="#FFF" d="M23 23H36V36H23z"/><path fill="#FFF" d="M35 23H48V36H35z"/><path fill="#FFF" d="M47 23H60V36H47z"/><path fill="#FFF" d="M59 23H72V36H59z"/><path fill="#FFF" d="M71 23H84V36H71z"/><path fill="#FFF" d="M83 23H96V36H83z"/><path fill="#FFF" d="M95 23H108V36H95z"/><path fill="#FFF" d="M107 23H120V36H107z"/><path fill="#FFF" d="M119 23H132V36H119z"/><path fill="#FFF" d="M131 23H144V36H131z"/><path fill="#FFF" d="M143 23H156V36H143z"/><path fill="#FFF" d="M155 23H168V36H155z"/><path fill="#FFF" d="M167 23H180V36H167z"/><path fill="#FFF" d="M179 23H192V36H179z"/><path fill="#FFF" d="M191 23H204V36H191z"/><path fill="#FFF" d="M203 23H216V36H203z"/><path fill="#FFF" d="M215 23H228V36H215z"/><path fill="#FFF" d="M227 23H240V36H227z"/><path fill="#FFF" d="M239 23H252V36H239z"/><path fill="#FFF" d="M251 23H264V36H251z"/><path fill="#FFF" d="M263 23H276V36H263z"/><path fill="#FFF" d="M275 23H288V36H275z"/><path fill="#FFF" d="M287 23H300V36H287z"/><path fill="#FFF" d="M299 23H312V36H299z"/><path fill="#FFF" d="M311 23H324V36H311z"/><path fill="#FFF" d="M323 23H336V36H323z"/><path fill="#FFF" d="M335 23H348V36H335z"/><path fill="#FFF" d="M347 23H360V36H347z"/><path fill="#FFF" d="M359 23H372V36H359z"/><path fill="#FFF" d="M371 23H384V36H371z"/><path fill="#FFF" d="M383 23H396V36H383z"/><path fill="#FFF" d="M395 23H408V36H395z"/><path fill="#FFF" d="M407 23H420V36H407z"/><path fill="#FFF" d="M419 23H432V36H419z"/><path fill="#FFF" d="M431 23H444V36H431z"/><path fill="#FFF" d="M443 23H456V36H443z"/><path fill="#FFF" d="M455 23H468V36H455z"/><path fill="#FFF" d="M467 23H512V36H467zM0 35H13V48H0z"/><path fill="#FFF" d="M11 35H24V48H11z"/><path fill="#FFF" d="M23 35H36V48H23z"/><path fill="#FFF" d="M35 35H48V48H35z"/><path fill="#FFF" d="M47 35H60V48H47z"/><path fill="#FFF" d="M59 35H72V48H59z"/><path fill="#FFF" d="M71 35H84V48H71z"/><path fill="#FFF" d="M83 35H96V48H83z"/><path fill="#FFF" d="M95 35H108V48H95z"/><path fill="#FFF" d="M107 35H120V48H107z"/><path fill="#FFF" d="M119 35H132V48H119z"/><path fill="#FFF" d="M131 35H144V48H131z"/><path fill="#FFF" d="M143 35H156V48H143z"/><path fill="#FFF" d="M155 35H168V48H155z"/><path fill="#FFF" d="M167 35H180V48H167z"/><path fill="#FFF" d="M179 35H192V48H179z"/><path fill="#FFF" d="M191 35H204V48H191z"/><path fill="#FFF" d="M203 35H216V48H203z"/><path fill="#FFF" d="M215 35H228V48H215z"/><path fill="#FFF" d="M227 35H240V48H227z"/><path fill="#FFF" d="M239 35H252V48H239z"/><path fill="#FFF" d="M251 35H264V48H251z"/><path fill="#FFF" d="M263 35H276V48H263z"/><path fill="#FFF" d="M275 35H288V48H275z"/><path fill="#FFF" d="M287 35H300V48H287z"/><path fill="#FFF" d="M299 35H312V48H299z"/><path fill="#FFF" d="M311 35H324V48H311z"/><path fill="#FFF" d="M323 35H336V48H323z"/><path fill="#FFF" d="M335 35H348V48H335z"/><path fill="#FFF" d="M347 35H360V48H347z"/><path fill="#FFF" d="M359 35H372V48H359z"/><path fill="#FFF" d="M371 35H384V48H371z"/><path fill="#FFF" d="M383 35H396V48H383z"/><path fill="#FFF" d="M395 35H408V48H395z"/><path fill="#FFF" d="M407 35H420V48H407z"/><path fill="#FFF" d="M419 35H432V48H419z"/><path fill="#FFF" d="M431 35H444V48H431z"/><path fill="#FFF" d="M443 35H456V48H443z"/><path fill="#FFF" d="M455 35H468V48H455z"/><path fill="#FFF" d="M467 35H512V48H467zM0 47H13V60H0z"/><path fill="#FFF" d="M11 47H24V60H11z"/><path fill="#FFF" d="M23 47H36V60H23z"/><path fill="#FFF" d="M35 47H48V60H35z"/><path fill="#FFF" d="M47 47H60V60H47z"/><path fill="#FFF" d="M59 47H72V60H59z"/><path fill="#FFF" d="M71 47H84V60H71z"/><path fill="#FFF" d="M83 47H96V60H83z"/><path fill="#FFF" d="M95 47H108V60H95z"/><path fill="#FFF" d="M107 47H120V60H107z"/><path fill="#FFF" d="M119 47H132V60H119z"/><path fill="#FFF" d="M131 47H144V60H131z"/><path fill="#FFF" d="M143 47H156V60H143z"/><path fill="#FFF" d="M155 47H168V60H155z"/><path fill="#FFF" d="M167 47H180V60H167z"/><path fill="#FFF" d="M179 47H192V60H179z"/><path fill="#FFF" d="M191 47H204V60H191z"/><path fill="#FFF" d="M203 47H216V60H203z"/><path fill="#FFF" d="M215 47H228V60H215z"/><path fill="#FFF" d="M227 47H240V60H227z"/><path fill="#FFF" d="M239 47H252V60H239z"/><path fill="#FFF" d="M251 47H264V60H251z"/><path fill="#FFF" d="M263 47H276V60H263z"/><path fill="#FFF" d="M275 47H288V60H275z"/><path fill="#FFF" d="M287 47H300V60H287z"/><path fill="#FFF" d="M299 47H312V60H299z"/><path fill="#FFF" d="M311 47H324V60H311z"/><path fill="#FFF" d="M323 47H336V60H323z"/><path fill="#FFF" d="M335 47H348V60H335z"/><path fill="#FFF" d="M347 47H360V60H347z"/><path fill="#FFF" d="M359 47H372V60H359z"/><path fill="#FFF" d="M371 47H384V60H371z"/><path fill="#FFF" d="M383 47H396V60H383z"/><path fill="#FFF" d="M395 47H408V60H395z"/><path fill="#FFF" d="M407 47H420V60H407z"/><path fill="#FFF" d="M419 47H432V60H419z"/><path fill="#FFF" d="M431 47H444V60H431z"/><path fill="#FFF" d="M443 47H456V60H443z"/><path fill="#FFF" d="M455 47H468V60H455z"/><path fill="#FFF" d="M467 47H512V60H467zM0 59H13V72H0z"/><path fill="#FFF" d="M11 59H24V72H11z"/><path fill="#FFF" d="M23 59H36V72H23z"/><path fill="#FFF" d="M35 59H48V72H35z"/><path fill="#FFF" d="M47 59H60V72H47z"/><path fill="#FFF" d="M59 59H72V72H59z"/><path fill="#FFF" d="M71 59H84V72H71z"/><path fill="#FFF" d="M83 59H96V72H83z"/><path fill="#FFF" d="M95 59H108V72H95z"/><path fill="#FFF" d="M107 59H120V72H107z"/><path fill="#FFF" d="M119 59H132V72H119z"/><path fill="#FFF" d="M131 59H144V72H131z"/><path fill="#FFF" d="M143 59H156V72H143z"/><path fill="#FFF" d="M155 59H168V72H155z"/><path fill="#FFF" d="M167 59H180V72H167z"/><path fill="#FFF" d="M179 59H192V72H179z"/><path fill="#FFF" d="M191 59H204V72H191z"/><path fill="#FFF" d="M203 59H216V72H203z"/><path fill="#FFF" d="M215 59H228V72H215z"/><path fill="#FFF" d="M227 59H240V72H227z"/><path fill="#FFF" d="M239 59H252V72H239z"/><path fill="#FFF" d="M251 59H264V72H251z"/><path fill="#FFF" d="M263 59H276V72H263z"/><path fill="#FFF" d="M275 59H288V72H275z"/><path fill="#FFF" d="M287 59H300V72H287z"/><path fill="#FFF" d="M299 59H312V72H299z"/><path fill="#FFF" d="M311 59H324V72H311z"/><path fill="#FFF" d="M323 59H336V72H323z"/><path fill="#FFF" d="M335 59H348V72H335z"/><path fill="#FFF" d="M347 59H360V72H347z"/><path fill="#FFF" d="M359 59H372V72H359z"/><path fill="#FFF" d="M371 59H384V72H371z"/><path fill="#FFF" d="M383 59H396V72H383z"/><path fill="#FFF" d="M395 59H408V72H395z"/><path fill="#FFF" d="M407 59H420V72H407z"/><path fill="#FFF" d="M419 59H432V72H419z"/><path fill="#FFF" d="M431 59H444V72H431z"/><path fill="#FFF" d="M443 59H456V72H443z"/><path fill="#FFF" d="M455 59H468V72H455z"/><path fill="#FFF" d="M467 59H512V72H467zM0 71H13V84H0z"/><path fill="#FFF" d="M11 71H24V84H11z"/><path fill="#FFF" d="M23 71H36V84H23z"/><path fill="#FFF" d="M35 71H48V84H35z"/><path fill="#FFF" d="M47 71H60V84H47z"/><path fill="#FFF" d="M59 71H72V84H59z"/><path fill="#FFF" d="M71 71H84V84H71z"/><path fill="#FFF" d="M83 71H96V84H83z"/><path fill="#FFF" d="M95 71H108V84H95z"/><path fill="#FFF" d="M107 71H120V84H107z"/><path fill="#FFF" d="M119 71H132V84H119z"/><path fill="#FFF" d="M131 71H144V84H131z"/><path fill="#FFF" d="M143 71H156V84H143z"/><path fill="#FFF" d="M155 71H168V84H155z"/><path fill="#FFF" d="M167 71H180V84H167z"/><path fill="#FFF" d="M179 71H192V84H179z"/><path fill="#FFF" d="M191 71H204V84H191z"/><path fill="#FFF" d="M203 71H216V84H203z"/><path fill="#FFF" d="M215 71H228V84H215z"/><path fill="#FFF" d="M227 71H240V84H227z"/><path fill="#FFF" d="M239 71H252V84H239z"/><path fill="#FFF" d="M251 71H264V84H251z"/><path fill="#FFF" d="M263 71H276V84H263z"/><path fill="#FFF" d="M275 71H288V84H275z"/><path fill="#FFF" d="M287 71H300V84H287z"/><path fill="#FFF" d="M299 71H312V84H299z"/><path fill="#FFF" d="M311 71H324V84H311z"/><path fill="#FFF" d="M323 71H336V84H323z"/><path fill="#FFF" d="M335 71H348V84H335z"/><path fill="#FFF" d="M347 71H360V84H347z"/><path fill="#FFF" d="M359 71H372V84H359z"/><path fill="#FFF" d="M371 71H384V84H371z"/><path fill="#FFF" d="M383 71H396V84H383z"/><path fill="#FFF" d="M395 71H408V84H395z"/><path fill="#FFF" d="M407 71H420V84H407z"/><path fill="#FFF" d="M419 71H432V84H419z"/><path fill="#FFF" d="M431 71H444V84H431z"/><path fill="#FFF" d="M443 71H456V84H443z"/><path fill="#FFF" d="M455 71H468V84H455z"/><path fill="#FFF" d="M467 71H512V84H467zM0 83H13V96H0z"/><path fill="#FFF" d="M11 83H24V96H11z"/><path fill="#FFF" d="M23 83H36V96H23z"/><path fill="#FFF" d="M35 83H48V96H35z"/><path fill="#FFF" d="M47 83H60V96H47z"/><path fill="#FFF" d="M59 83H72V96H59z"/><path fill="#FFF" d="M71 83H84V96H71z"/><path fill="#FFF" d="M83 83H96V96H83z"/><path fill="#FFF" d="M95 83H108V96H95z"/><path fill="#FFF" d="M107 83H120V96H107z"/><path fill="#FFF" d="M119 83H132V96H119z"/><path fill="#FFF" d="M131 83H144V96H131z"/><path fill="#FFF" d="M143 83H156V96H143z"/><path fill="#FFF" d="M155 83H168V96H155z"/><path fill="#FFF" d="M167 83H180V96H167z"/><path fill="#FFF" d="M179 83H192V96H179z"/><path fill="#FFF" d="M191 83H204V96H191z"/><path fill="#FFF" d="M203 83H216V96H203z"/><path fill="#FFF" d="M215 83H228V96H215z"/><path fill="#FFF" d="M227 83H240V96H227z"/><path fill="#FFF" d="M239 83H252V96H239z"/><path fill="#FFF" d="M251 83H264V96H251z"/><path fill="#FFF" d="M263 83H276V96H263z"/><path fill="#FFF" d="M275 83H288V96H275z"/><path fill="#FFF" d="M287 83H300V96H287z"/><path fill="#FFF" d="M299 83H312V96H299z"/><path fill="#FFF" d="M311 83H324V96H311z"/><path fill="#FFF" d="M323 83H336V96H323z"/><path fill="#FFF" d="M335 83H348V96H335z"/><path fill="#FFF" d="M347 83H360V96H347z"/><path fill="#FFF" d="M359 83H372V96H359z"/><path fill="#FFF" d="M371 83H384V96H371z"/><path fill="#FFF" d="M383 83H396V96H383z"/><path fill="#FFF" d="M395 83H408V96H395z"/><path fill="#FFF" d="M407 83H420V96H407z"/><path fill="#FFF" d="M419 83H432V96H419z"/><path fill="#FFF" d="M431 83H444V96H431z"/><path fill="#FFF" d="M443 83H456V96H443z"/><path fill="#FFF" d="M455 83H468V96H455z"/><path fill="#FFF" d="M467 83H512V96H467zM0 95H13V108H0z"/><path fill="#FFF" d="M11 95H24V108H11z"/><path fill="#FFF" d="M23 95H36V108H23z"/><path fill="#FFF" d="M35 95H48V108H35z"/><path fill="#FFF" d="M47 95H60V108H47z"/><path fill="#FFF" d="M59 95H72V108H59z"/><path fill="#FFF" d="M71 95H84V108H71z"/><path fill="#FFF" d="M83 95H96V108H83z"/><path fill="#FFF" d="M95 95H108V108H95z"/><path fill="#FFF" d="M107 95H120V108H107z"/><path fill="#FFF" d="M119 95H132V108H119z"/><path fill="#FFF" d="M131 95H144V108H131z"/><path fill="#FFF" d="M143 95H156V108H143z"/><path fill="#FFF" d="M155 95H168V108H155z"/><path fill="#FFF" d="M167 95H180V108H167z"/><path fill="#FFF" d="M179 95H192V108H179z"/><path fill="#FFF" d="M191 95H204V108H191z"/><path fill="#FFF" d="M203 95H216V108H203z"/><path fill="#FFF" d="M215 95H228V108H215z"/><path fill="#FFF" d="M227 95H240V108H227z"/><path fill="#FFF" d="M239 95H252V108H239z"/><path fill="#FFF" d="M251 95H264V108H251z"/><path fill="#FFF" d="M263 95H276V108H263z"/><path fill="#FFF" d="M275 95H288V108H275z"/><path fill="#FFF" d="M287 95H300V108H287z"/><path fill="#FFF" d="M299 95H312V108H299z"/><path fill="#FFF" d="M311 95H324V108H311z"/><path fill="#FFF" d="M323 95H336V108H323z"/><path fill="#FFF" d="M335 95H348V108H335z"/><path fill="#FFF" d="M347 95H360V108H347z"/><path fill="#FFF" d="M359 95H372V108H359z"/><path fill="#FFF" d="M371 95H384V108H371z"/><path fill="#FFF" d="M383 95H396V108H383z"/><path fill="#FFF" d="M395 95H408V108H395z"/><path fill="#FFF" d="M407 95H420V108H407z"/><path fill="#FFF" d="M419 95H432V108H419z"/><path fill="#FFF" d="M431 95H444V108H431z"/><path fill="#FFF" d="M443 95H456V108H443z"/><path fill="#FFF" d="M455 95H468V108H455z"/><path fill="#FFF" d="M467 95H512V108H467zM0 107H13V120H0z"/><path fill="#FFF" d="M11 107H24V120H11z"/><path fill="#FFF" d="M23 107H36V120H23z"/><path fill="#FFF" d="M35 107H48V120H35z"/><path fill="#FFF" d="M47 107H60V120H47z"/><path fill="#FFF" d="M59 107H72V120H59z"/><path fill="#FFF" d="M71 107H84V120H71z"/><path fill="#FFF" d="M83 107H96V120H83z"/><path fill="#FFF" d="M95 107H108V120H95z"/><path fill="#FFF" d="M107 107H120V120H107z"/><path fill="#FFF" d="M119 107H132V120H119z"/><path fill="#FFF" d="M131 107H144V120H131z"/><path fill="#FFF" d="M143 107H156V120H143z"/><path fill="#FFF" d="M155 107H168V120H155z"/><path fill="#FFF" d="M167 107H180V120H167z"/><path fill="#FFF" d="M179 107H192V120H179z"/><path fill="#FFF" d="M191 107H204V120H191z"/><path fill="#FFF" d="M203 107H216V120H203z"/><path fill="#FFF" d="M215 107H228V120H215z"/><path fill="#FFF" d="M227 107H240V120H227z"/><path fill="#FFF" d="M239 107H252V120H239z"/><path fill="#FFF" d="M251 107H264V120H251z"/><path fill="#FFF" d="M263 107H276V120H263z"/><path fill="#FFF" d="M275 107H288V120H275z"/><path fill="#FFF" d="M287 107H300V120H287z"/><path fill="#FFF" d="M299 107H312V120H299z"/><path fill="#FFF" d="M311 107H324V120H311z"/><path fill="#FFF" d="M323 107H336V120H323z"/><path fill="#FFF" d="M335 107H348V120H335z"/><path fill="#FFF" d="M347 107H360V120H347z"/><path fill="#FFF" d="M359 107H372V120H359z"/><path fill="#FFF" d="M371 107H384V120H371z"/><path fill="#FFF" d="M383 107H396V120H383z"/><path fill="#FFF" d="M395 107H408V120H395z"/><path fill="#FFF" d="M407 107H420V120H407z"/><path fill="#FFF" d="M419 107H432V120H419z"/><path fill="#FFF" d="M431 107H444V120H431z"/><path fill="#FFF" d="M443 107H456V120H443z"/><path fill="#FFF" d="M455 107H468V120H455z"/><path fill="#FFF" d="M467 107H512V120H467zM0 119H13V132H0z"/><path fill="#FFF" d="M11 119H24V132H11z"/><path fill="#FFF" d="M23 119H36V132H23z"/><path fill="#FFF" d="M35 119H48V132H35z"/><path fill="#FFF" d="M47 119H60V132H47z"/><path fill="#FFF" d="M59 119H72V132H59z"/><path fill="#FFF" d="M71 119H84V132H71z"/><path fill="#FFF" d="M83 119H96V132H83z"/><path fill="#FFF" d="M95 119H108V132H95z"/><path fill="#FFF" d="M107 119H120V132H107z"/><path fill="#FFF" d="M119 119H132V132H119z"/><path fill="#FFF" d="M131 119H144V132H131z"/><path fill="#FFF" d="M143 119H156V132H143z"/><path fill="#FFF" d="M155 119H168V132H155z"/><path fill="#FFF" d="M167 119H180V132H167z"/><path fill="#FFF" d="M179 119H192V132H179z"/><path fill="#FFF" d="M191 119H204V132H191z"/><path fill="#FFF" d="M203 119H216V132H203z"/><path fill="#FFF" d="M215 119H228V132H215z"/><path fill="#FFF" d="M227 119H240V132H227z"/><path fill="#FFF" d="M239 119H252V132H239z"/><path fill="#FFF" d="M251 119H264V132H251z"/><path fill="#FFF" d="M263 119H276V132H263z"/><path fill="#FFF" d="M275 119H288V132H275z"/><path fill="#FFF" d="M287 119H300V132H287z"/><path fill="#FFF" d="M299 119H312V132H299z"/><path fill="#FFF" d="M311 119H324V132H311z"/><path fill="#FFF" d="M323 119H336V132H323z"/><path fill="#FDFEFE" d="M335 119H348V132H335z"/><path fill="#CBECFD" d="M347 119H360V132H347z"/><path fill="#E7F6FE" d="M359 119H372V132H359z"/><path fill="#FFF" d="M371 119H384V132H371z"/><path fill="#FFF" d="M383 119H396V132H383z"/><path fill="#FFF" d="M395 119H408V132H395z"/><path fill="#FFF" d="M407 119H420V132H407z"/><path fill="#FFF" d="M419 119H432V132H419z"/><path fill="#FFF" d="M431 119H444V132H431z"/><path fill="#FFF" d="M443 119H456V132H443z"/><path fill="#FFF" d="M455 119H468V132H455z"/><path fill="#FFF" d="M467 119H512V132H467zM0 131H13V144H0z"/><path fill="#FFF" d="M11 131H24V144H11z"/><path fill="#FFF" d="M23 131H36V144H23z"/><path fill="#FFF" d="M35 131H48V144H35z"/><path fill="#FFF" d="M47 131H60V144H47z"/><path fill="#FFF" d="M59 131H72V144H59z"/><path fill="#FFF" d="M71 131H84V144H71z"/><path fill="#FFF" d="M83 131H96V144H83z"/><path fill="#FFF" d="M95 131H108V144H95z"/><path fill="#FFF" d="M107 131H120V144H107z"/><path fill="#FFF" d="M119 131H132V144H119z"/><path fill="#FFF" d="M131 131H144V144H131z"/><path fill="#FFF" d="M143 131H156V144H143z"/><path fill="#FFF" d="M155 131H168V144H155z"/><path fill="#FFF" d="M167 131H180V144H167z"/><path fill="#FFF" d="M179 131H192V144H179z"/><path fill="#FFF" d="M191 131H204V144H191z"/><path fill="#FFF" d="M203 131H216V144H203z"/><path fill="#FFF" d="M215 131H228V144H215z"/><path fill="#FFF" d="M227 131H240V144H227z"/><path fill="#FFF" d="M239 131H252V144H239z"/><path fill="#FFF" d="M251 131H264V144H251z"/><path fill="#FFF" d="M263 131H276V144H263z"/><path fill="#FFF" d="M275 131H288V144H275z"/><path fill="#FFF" d="M287 131H300V144H287z"/><path fill="#FFF" d="M299 131H312V144H299z"/><path fill="#FFF" d="M311 131H324V144H311z"/><path fill="#FDFEFE" d="M323 131H336V144H323z"/><path fill="#98DAFC" d="M335 131H348V144H335z"/><path fill="#49C1FE" d="M347 131H360V144H347z"/><path fill="#5DC7FD" d="M359 131H372V144H359z"/><path fill="#DDF2FD" d="M371 131H384V144H371z"/><path fill="#FFF" d="M383 131H396V144H383z"/><path fill="#FFF" d="M395 131H408V144H395z"/><path fill="#FFF" d="M407 131H420V144H407z"/><path fill="#FFF" d="M419 131H432V144H419z"/><path fill="#FFF" d="M431 131H444V144H431z"/><path fill="#FFF" d="M443 131H456V144H443z"/><path fill="#FFF" d="M455 131H468V144H455z"/><path fill="#FFF" d="M467 131H512V144H467zM0 143H13V156H0z"/><path fill="#FFF" d="M11 143H24V156H11z"/><path fill="#FFF" d="M23 143H36V156H23z"/><path fill="#FFF" d="M35 143H48V156H35z"/><path fill="#FFF" d="M47 143H60V156H47z"/><path fill="#FFF" d="M59 143H72V156H59z"/><path fill="#FFF" d="M71 143H84V156H71z"/><path fill="#FFF" d="M83 143H96V156H83z"/><path fill="#FFF" d="M95 143H108V156H95z"/><path fill="#FFF" d="M107 143H120V156H107z"/><path fill="#FFF" d="M119 143H132V156H119z"/><path fill="#FFF" d="M131 143H144V156H131z"/><path fill="#FFF" d="M143 143H156V156H143z"/><path fill="#FFF" d="M155 143H168V156H155z"/><path fill="#FFF" d="M167 143H180V156H167z"/><path fill="#FFF" d="M179 143H192V156H179z"/><path fill="#FFF" d="M191 143H204V156H191z"/><path fill="#FFF" d="M203 143H216V156H203z"/><path fill="#FFF" d="M215 143H228V156H215z"/><path fill="#FFF" d="M227 143H240V156H227z"/><path fill="#FFF" d="M239 143H252V156H239z"/><path fill="#FFF" d="M251 143H264V156H251z"/><path fill="#FFF" d="M263 143H276V156H263z"/><path fill="#FFF" d="M275 143H288V156H275z"/><path fill="#FFF" d="M287 143H300V156H287z"/><path fill="#FFF" d="M299 143H312V156H299z"/><path fill="#FCFDFE" d="M311 143H324V156H311z"/><path fill="#93D7FD" d="M323 143H336V156H323z"/><path fill="#48C0FE" d="M335 143H348V156H335z"/><path fill="#49C1FE" d="M347 143H360V156H347z"/><path fill="#49C1FE" d="M359 143H372V156H359z"/><path fill="#5DC7FD" d="M371 143H384V156H371z"/><path fill="#DDF2FD" d="M383 143H396V156H383z"/><path fill="#FFF" d="M395 143H408V156H395z"/><path fill="#FFF" d="M407 143H420V156H407z"/><path fill="#FFF" d="M419 143H432V156H419z"/><path fill="#FFF" d="M431 143H444V156H431z"/><path fill="#FFF" d="M443 143H456V156H443z"/><path fill="#FFF" d="M455 143H468V156H455z"/><path fill="#FFF" d="M467 143H512V156H467zM0 155H13V168H0z"/><path fill="#FFF" d="M11 155H24V168H11z"/><path fill="#FFF" d="M23 155H36V168H23z"/><path fill="#FFF" d="M35 155H48V168H35z"/><path fill="#FFF" d="M47 155H60V168H47z"/><path fill="#FFF" d="M59 155H72V168H59z"/><path fill="#FFF" d="M71 155H84V168H71z"/><path fill="#FFF" d="M83 155H96V168H83z"/><path fill="#FFF" d="M95 155H108V168H95z"/><path fill="#FFF" d="M107 155H120V168H107z"/><path fill="#FFF" d="M119 155H132V168H119z"/><path fill="#FFF" d="M131 155H144V168H131z"/><path fill="#FFF" d="M143 155H156V168H143z"/><path fill="#FFF" d="M155 155H168V168H155z"/><path fill="#FFF" d="M167 155H180V168H167z"/><path fill="#FFF" d="M179 155H192V168H179z"/><path fill="#FFF" d="M191 155H204V168H191z"/><path fill="#FFF" d="M203 155H216V168H203z"/><path fill="#FFF" d="M215 155H228V168H215z"/><path fill="#FFF" d="M227 155H240V168H227z"/><path fill="#FFF" d="M239 155H252V168H239z"/><path fill="#FFF" d="M251 155H264V168H251z"/><path fill="#FFF" d="M263 155H276V168H263z"/><path fill="#FFF" d="M275 155H288V168H275z"/><path fill="#FFF" d="M287 155H300V168H287z"/><path fill="#FCFDFE" d="M299 155H312V168H299z"/><path fill="#91D5FD" d="M311 155H324V168H311z"/><path fill="#3DB8FF" d="M323 155H336V168H323z"/><path fill="#40BAFE" d="M335 155H348V168H335z"/><path fill="#48C0FE" d="M347 155H360V168H347z"/><path fill="#49C1FE" d="M359 155H372V168H359z"/><path fill="#49C1FE" d="M371 155H384V168H371z"/><path fill="#5DC7FD" d="M383 155H396V168H383z"/><path fill="#DDF2FD" d="M395 155H408V168H395z"/><path fill="#FFF" d="M407 155H420V168H407z"/><path fill="#FFF" d="M419 155H432V168H419z"/><path fill="#FFF" d="M431 155H444V168H431z"/><path fill="#FFF" d="M443 155H456V168H443z"/><path fill="#FFF" d="M455 155H468V168H455z"/><path fill="#FFF" d="M467 155H512V168H467zM0 167H13V180H0z"/><path fill="#FFF" d="M11 167H24V180H11z"/><path fill="#FFF" d="M23 167H36V180H23z"/><path fill="#FFF" d="M35 167H48V180H35z"/><path fill="#FFF" d="M47 167H60V180H47z"/><path fill="#FFF" d="M59 167H72V180H59z"/><path fill="#FFF" d="M71 167H84V180H71z"/><path fill="#FFF" d="M83 167H96V180H83z"/><path fill="#FFF" d="M95 167H108V180H95z"/><path fill="#FFF" d="M107 167H120V180H107z"/><path fill="#FFF" d="M119 167H132V180H119z"/><path fill="#FFF" d="M131 167H144V180H131z"/><path fill="#FFF" d="M143 167H156V180H143z"/><path fill="#FFF" d="M155 167H168V180H155z"/><path fill="#FFF" d="M167 167H180V180H167z"/><path fill="#FFF" d="M179 167H192V180H179z"/><path fill="#FFF" d="M191 167H204V180H191z"/><path fill="#FFF" d="M203 167H216V180H203z"/><path fill="#FFF" d="M215 167H228V180H215z"/><path fill="#FFF" d="M227 167H240V180H227z"/><path fill="#FFF" d="M239 167H252V180H239z"/><path fill="#FFF" d="M251 167H264V180H251z"/><path fill="#FFF" d="M263 167H276V180H263z"/><path fill="#FFF" d="M275 167H288V180H275z"/><path fill="#FCFDFE" d="M287 167H300V180H287z"/><path fill="#91D5FD" d="M299 167H312V180H299z"/><path fill="#3DB8FF" d="M311 167H324V180H311z"/><path fill="#3DB8FF" d="M323 167H336V180H323z"/><path fill="#3DB8FF" d="M335 167H348V180H335z"/><path fill="#40BAFE" d="M347 167H360V180H347z"/><path fill="#47C0FE" d="M359 167H372V180H359z"/><path fill="#49C1FE" d="M371 167H384V180H371z"/><path fill="#49C1FE" d="M383 167H396V180H383z"/><path fill="#5DC7FD" d="M395 167H408V180H395z"/><path fill="#DDF2FD" d="M407 167H420V180H407z"/><path fill="#FFF" d="M419 167H432V180H419z"/><path fill="#FFF" d="M431 167H444V180H431z"/><path fill="#FFF" d="M443 167H456V180H443z"/><path fill="#FFF" d="M455 167H468V180H455z"/><path fill="#FFF" d="M467 167H512V180H467zM0 179H13V192H0z"/><path fill="#FFF" d="M11 179H24V192H11z"/><path fill="#FFF" d="M23 179H36V192H23z"/><path fill="#FFF" d="M35 179H48V192H35z"/><path fill="#FFF" d="M47 179H60V192H47z"/><path fill="#FFF" d="M59 179H72V192H59z"/><path fill="#FFF" d="M71 179H84V192H71z"/><path fill="#FFF" d="M83 179H96V192H83z"/><path fill="#FFF" d="M95 179H108V192H95z"/><path fill="#FFF" d="M107 179H120V192H107z"/><path fill="#FFF" d="M119 179H132V192H119z"/><path fill="#FFF" d="M131 179H144V192H131z"/><path fill="#FFF" d="M143 179H156V192H143z"/><path fill="#FFF" d="M155 179H168V192H155z"/><path fill="#FFF" d="M167 179H180V192H167z"/><path fill="#FFF" d="M179 179H192V192H179z"/><path fill="#FFF" d="M191 179H204V192H191z"/><path fill="#FFF" d="M203 179H216V192H203z"/><path fill="#FFF" d="M215 179H228V192H215z"/><path fill="#FFF" d="M227 179H240V192H227z"/><path fill="#FFF" d="M239 179H252V192H239z"/><path fill="#FFF" d="M251 179H264V192H251z"/><path fill="#FFF" d="M263 179H276V192H263z"/><path fill="#FCFDFE" d="M275 179H288V192H275z"/><path fill="#91D5FD" d="M287 179H300V192H287z"/><path fill="#3DB8FF" d="M299 179H312V192H299z"/><path fill="#3DB8FF" d="M311 179H324V192H311z"/><path fill="#3DB8FF" d="M323 179H336V192H323z"/><path fill="#3DB8FF" d="M335 179H348V192H335z"/><path fill="#3DB8FF" d="M347 179H360V192H347z"/><path fill="#40BAFE" d="M359 179H372V192H359z"/><path fill="#48C0FE" d="M371 179H384V192H371z"/><path fill="#49C1FE" d="M383 179H396V192H383z"/><path fill="#49C1FE" d="M395 179H408V192H395z"/><path fill="#75CFFD" d="M407 179H420V192H407z"/><path fill="#FEFEFE" d="M419 179H432V192H419z"/><path fill="#FFF" d="M431 179H444V192H431z"/><path fill="#FFF" d="M443 179H456V192H443z"/><path fill="#FFF" d="M455 179H468V192H455z"/><path fill="#FFF" d="M467 179H512V192H467zM0 191H13V204H0z"/><path fill="#FFF" d="M11 191H24V204H11z"/><path fill="#FFF" d="M23 191H36V204H23z"/><path fill="#FFF" d="M35 191H48V204H35z"/><path fill="#FFF" d="M47 191H60V204H47z"/><path fill="#FFF" d="M59 191H72V204H59z"/><path fill="#FFF" d="M71 191H84V204H71z"/><path fill="#FFF" d="M83 191H96V204H83z"/><path fill="#FFF" d="M95 191H108V204H95z"/><path fill="#FFF" d="M107 191H120V204H107z"/><path fill="#FFF" d="M119 191H132V204H119z"/><path fill="#F1F7FD" d="M131 191H144V204H131z"/><path fill="#71A1E5" d="M143 191H156V204H143z"/><path fill="#75A2E5" d="M155 191H168V204H155z"/><path fill="#F4F8FC" d="M167 191H180V204H167z"/><path fill="#FFF" d="M179 191H192V204H179z"/><path fill="#FFF" d="M191 191H204V204H191z"/><path fill="#FFF" d="M203 191H216V204H203z"/><path fill="#FFF" d="M215 191H228V204H215z"/><path fill="#FFF" d="M227 191H240V204H227z"/><path fill="#FFF" d="M239 191H252V204H239z"/><path fill="#FFF" d="M251 191H264V204H251z"/><path fill="#FCFDFE" d="M263 191H276V204H263z"/><path fill="#8DD1FD" d="M275 191H288V204H275z"/><path fill="#3CB7FF" d="M287 191H300V204H287z"/><path fill="#3DB8FF" d="M299 191H312V204H299z"/><path fill="#3DB8FF" d="M311 191H324V204H311z"/><path fill="#3DB8FF" d="M323 191H336V204H323z"/><path fill="#3DB8FF" d="M335 191H348V204H335z"/><path fill="#3DB8FF" d="M347 191H360V204H347z"/><path fill="#3DB8FF" d="M359 191H372V204H359z"/><path fill="#3FBAFE" d="M371 191H384V204H371z"/><path fill="#48C0FE" d="M383 191H396V204H383z"/><path fill="#49C1FE" d="M395 191H408V204H395z"/><path fill="#95D6F7" d="M407 191H420V204H407z"/><path fill="#FEFEFE" d="M419 191H432V204H419z"/><path fill="#FFF" d="M431 191H444V204H431z"/><path fill="#FFF" d="M443 191H456V204H443z"/><path fill="#FFF" d="M455 191H468V204H455z"/><path fill="#FFF" d="M467 191H512V204H467zM0 203H13V216H0z"/><path fill="#FFF" d="M11 203H24V216H11z"/><path fill="#FFF" d="M23 203H36V216H23z"/><path fill="#FFF" d="M35 203H48V216H35z"/><path fill="#FFF" d="M47 203H60V216H47z"/><path fill="#FFF" d="M59 203H72V216H59z"/><path fill="#FFF" d="M71 203H84V216H71z"/><path fill="#FFF" d="M83 203H96V216H83z"/><path fill="#FFF" d="M95 203H108V216H95z"/><path fill="#FFF" d="M107 203H120V216H107z"/><path fill="#F1F7FD" d="M119 203H132V216H119z"/><path fill="#508CE0" d="M131 203H144V216H131z"/><path fill="#0C5BD2" d="M143 203H156V216H143z"/><path fill="#0C5BD2" d="M155 203H168V216H155z"/><path fill="#578DDF" d="M167 203H180V216H167z"/><path fill="#F4F8FC" d="M179 203H192V216H179z"/><path fill="#FFF" d="M191 203H204V216H191z"/><path fill="#FFF" d="M203 203H216V216H203z"/><path fill="#FFF" d="M215 203H228V216H215z"/><path fill="#FFF" d="M227 203H240V216H227z"/><path fill="#FFF" d="M239 203H252V216H239z"/><path fill="#FCFDFE" d="M251 203H264V216H251z"/><path fill="#89CBFD" d="M263 203H276V216H263z"/><path fill="#2EA6FF" d="M275 203H288V216H275z"/><path fill="#35AFFF" d="M287 203H300V216H287z"/><path fill="#3DB8FF" d="M299 203H312V216H299z"/><path fill="#3DB8FF" d="M311 203H324V216H311z"/><path fill="#3DB8FF" d="M323 203H336V216H323z"/><path fill="#3DB8FF" d="M335 203H348V216H335z"/><path fill="#3DB8FF" d="M347 203H360V216H347z"/><path fill="#3DB8FF" d="M359 203H372V216H359z"/><path fill="#3DB8FF" d="M371 203H384V216H371z"/><path fill="#3FB9FE" d="M383 203H396V216H383z"/><path fill="#85CFF4" d="M395 203H408V216H395z"/><path fill="#F0F2F3" d="M407 203H420V216H407z"/><path fill="#FEFEFE" d="M419 203H432V216H419z"/><path fill="#FFF" d="M431 203H444V216H431z"/><path fill="#FFF" d="M443 203H456V216H443z"/><path fill="#FFF" d="M455 203H468V216H455z"/><path fill="#FFF" d="M467 203H512V216H467zM0 215H13V228H0z"/><path fill="#FFF" d="M11 215H24V228H11z"/><path fill="#FFF" d="M23 215H36V228H23z"/><path fill="#FFF" d="M35 215H48V228H35z"/><path fill="#FFF" d="M47 215H60V228H47z"/><path fill="#FFF" d="M59 215H72V228H59z"/><path fill="#FFF" d="M71 215H84V228H71z"/><path fill="#FFF" d="M83 215H96V228H83z"/><path fill="#FFF" d="M95 215H108V228H95z"/><path fill="#F1F7FD" d="M107 215H120V228H107z"/><path fill="#508CE0" d="M119 215H132V228H119z"/><path fill="#0C5BD2" d="M131 215H144V228H131z"/><path fill="#0C5BD2" d="M143 215H156V228H143z"/><path fill="#0C5BD2" d="M155 215H168V228H155z"/><path fill="#0C5BD2" d="M167 215H180V228H167z"/><path fill="#578DDF" d="M179 215H192V228H179z"/><path fill="#F5F8FC" d="M191 215H204V228H191z"/><path fill="#FFF" d="M203 215H216V228H203z"/><path fill="#FFF" d="M215 215H228V228H215z"/><path fill="#FFF" d="M227 215H240V228H227z"/><path fill="#FCFDFE" d="M239 215H252V228H239z"/><path fill="#89CBFD" d="M251 215H264V228H251z"/><path fill="#2EA6FF" d="M263 215H276V228H263z"/><path fill="#2EA6FF" d="M275 215H288V228H275z"/><path fill="#2EA6FF" d="M287 215H300V228H287z"/><path fill="#35AEFF" d="M299 215H312V228H299z"/><path fill="#3DB8FF" d="M311 215H324V228H311z"/><path fill="#3DB8FF" d="M323 215H336V228H323z"/><path fill="#3DB8FF" d="M335 215H348V228H335z"/><path fill="#3DB8FF" d="M347 215H360V228H347z"/><path fill="#3DB8FF" d="M359 215H372V228H359z"/><path fill="#3DB8FF" d="M371 215H384V228H371z"/><path fill="#80CAF5" d="M383 215H396V228H383z"/><path fill="#EFF1F2" d="M395 215H408V228H395z"/><path fill="#FEFEFE" d="M407 215H420V228H407z"/><path fill="#FFF" d="M419 215H432V228H419z"/><path fill="#FFF" d="M431 215H444V228H431z"/><path fill="#FFF" d="M443 215H456V228H443z"/><path fill="#FFF" d="M455 215H468V228H455z"/><path fill="#FFF" d="M467 215H512V228H467zM0 227H13V240H0z"/><path fill="#FFF" d="M11 227H24V240H11z"/><path fill="#FFF" d="M23 227H36V240H23z"/><path fill="#FFF" d="M35 227H48V240H35z"/><path fill="#FFF" d="M47 227H60V240H47z"/><path fill="#FFF" d="M59 227H72V240H59z"/><path fill="#FFF" d="M71 227H84V240H71z"/><path fill="#FFF" d="M83 227H96V240H83z"/><path fill="#F1F7FD" d="M95 227H108V240H95z"/><path fill="#508CE0" d="M107 227H120V240H107z"/><path fill="#0C5BD2" d="M119 227H132V240H119z"/><path fill="#0C5BD2" d="M131 227H144V240H131z"/><path fill="#0C5BD2" d="M143 227H156V240H143z"/><path fill="#0C5BD2" d="M155 227H168V240H155z"/><path fill="#0C5BD2" d="M167 227H180V240H167z"/><path fill="#0C5BD2" d="M179 227H192V240H179z"/><path fill="#598EDE" d="M191 227H204V240H191z"/><path fill="#F5F8FC" d="M203 227H216V240H203z"/><path fill="#FFF" d="M215 227H228V240H215z"/><path fill="#FCFDFE" d="M227 227H240V240H227z"/><path fill="#89CBFD" d="M239 227H252V240H239z"/><path fill="#2EA6FF" d="M251 227H264V240H251z"/><path fill="#2EA6FF" d="M263 227H276V240H263z"/><path fill="#2EA6FF" d="M275 227H288V240H275z"/><path fill="#2EA6FF" d="M287 227H300V240H287z"/><path fill="#2EA6FF" d="M299 227H312V240H299z"/><path fill="#35AEFF" d="M311 227H324V240H311z"/><path fill="#3CB7FF" d="M323 227H336V240H323z"/><path fill="#3DB8FF" d="M335 227H348V240H335z"/><path fill="#3DB8FF" d="M347 227H360V240H347z"/><path fill="#3DB8FF" d="M359 227H372V240H359z"/><path fill="#80CAF5" d="M371 227H384V240H371z"/><path fill="#EFF1F2" d="M383 227H396V240H383z"/><path fill="#FEFEFE" d="M395 227H408V240H395z"/><path fill="#FFF" d="M407 227H420V240H407z"/><path fill="#FFF" d="M419 227H432V240H419z"/><path fill="#FFF" d="M431 227H444V240H431z"/><path fill="#FFF" d="M443 227H456V240H443z"/><path fill="#FFF" d="M455 227H468V240H455z"/><path fill="#FFF" d="M467 227H512V240H467zM0 239H13V252H0z"/><path fill="#FFF" d="M11 239H24V252H11z"/><path fill="#FFF" d="M23 239H36V252H23z"/><path fill="#FFF" d="M35 239H48V252H35z"/><path fill="#FFF" d="M47 239H60V252H47z"/><path fill="#FFF" d="M59 239H72V252H59z"/><path fill="#FFF" d="M71 239H84V252H71z"/><path fill="#FBFCFE" d="M83 239H96V252H83z"/><path fill="#538DE0" d="M95 239H108V252H95z"/><path fill="#0C5BD2" d="M107 239H120V252H107z"/><path fill="#0C5BD2" d="M119 239H132V252H119z"/><path fill="#0C5BD2" d="M131 239H144V252H131z"/><path fill="#0C5BD2" d="M143 239H156V252H143z"/><path fill="#0C5BD2" d="M155 239H168V252H155z"/><path fill="#0C5BD2" d="M167 239H180V252H167z"/><path fill="#0C5BD2" d="M179 239H192V252H179z"/><path fill="#0C5BD2" d="M191 239H204V252H191z"/><path fill="#598EDE" d="M203 239H216V252H203z"/><path fill="#F3F7FC" d="M215 239H228V252H215z"/><path fill="#89CBFD" d="M227 239H240V252H227z"/><path fill="#2EA6FF" d="M239 239H252V252H239z"/><path fill="#2EA6FF" d="M251 239H264V252H251z"/><path fill="#2EA6FF" d="M263 239H276V252H263z"/><path fill="#2EA6FF" d="M275 239H288V252H275z"/><path fill="#2EA6FF" d="M287 239H300V252H287z"/><path fill="#2EA6FF" d="M299 239H312V252H299z"/><path fill="#2EA6FF" d="M311 239H324V252H311z"/><path fill="#34AEFF" d="M323 239H336V252H323z"/><path fill="#3CB7FF" d="M335 239H348V252H335z"/><path fill="#3DB8FF" d="M347 239H360V252H347z"/><path fill="#80CAF5" d="M359 239H372V252H359z"/><path fill="#EFF1F2" d="M371 239H384V252H371z"/><path fill="#FEFEFE" d="M383 239H396V252H383z"/><path fill="#FFF" d="M395 239H408V252H395z"/><path fill="#FFF" d="M407 239H420V252H407z"/><path fill="#FFF" d="M419 239H432V252H419z"/><path fill="#FFF" d="M431 239H444V252H431z"/><path fill="#FFF" d="M443 239H456V252H443z"/><path fill="#FFF" d="M455 239H468V252H455z"/><path fill="#FFF" d="M467 239H512V252H467zM0 251H13V264H0z"/><path fill="#FFF" d="M11 251H24V264H11z"/><path fill="#FFF" d="M23 251H36V264H23z"/><path fill="#FFF" d="M35 251H48V264H35z"/><path fill="#FFF" d="M47 251H60V264H47z"/><path fill="#FFF" d="M59 251H72V264H59z"/><path fill="#FFF" d="M71 251H84V264H71z"/><path fill="#E3EDF9" d="M83 251H96V264H83z"/><path fill="#0E5DD2" d="M95 251H108V264H95z"/><path fill="#0C5BD2" d="M107 251H120V264H107z"/><path fill="#0C5BD2" d="M119 251H132V264H119z"/><path fill="#0C5BD2" d="M131 251H144V264H131z"/><path fill="#0C5BD2" d="M143 251H156V264H143z"/><path fill="#0C5BD2" d="M155 251H168V264H155z"/><path fill="#0C5BD2" d="M167 251H180V264H167z"/><path fill="#0C5BD2" d="M179 251H192V264H179z"/><path fill="#0C5BD2" d="M191 251H204V264H191z"/><path fill="#0C5BD2" d="M203 251H216V264H203z"/><path fill="#3B94EE" d="M215 251H228V264H215z"/><path fill="#2DA5FE" d="M227 251H240V264H227z"/><path fill="#2EA6FF" d="M239 251H252V264H239z"/><path fill="#2EA6FF" d="M251 251H264V264H251z"/><path fill="#2EA6FF" d="M263 251H276V264H263z"/><path fill="#2EA6FF" d="M275 251H288V264H275z"/><path fill="#2EA6FF" d="M287 251H300V264H287z"/><path fill="#2EA6FF" d="M299 251H312V264H299z"/><path fill="#2EA6FF" d="M311 251H324V264H311z"/><path fill="#2EA6FF" d="M323 251H336V264H323z"/><path fill="#34ADFF" d="M335 251H348V264H335z"/><path fill="#7FCAF5" d="M347 251H360V264H347z"/><path fill="#EFF1F2" d="M359 251H372V264H359z"/><path fill="#FEFEFE" d="M371 251H384V264H371z"/><path fill="#FFF" d="M383 251H396V264H383z"/><path fill="#FFF" d="M395 251H408V264H395z"/><path fill="#FFF" d="M407 251H420V264H407z"/><path fill="#FFF" d="M419 251H432V264H419z"/><path fill="#FFF" d="M431 251H444V264H431z"/><path fill="#FFF" d="M443 251H456V264H443z"/><path fill="#FFF" d="M455 251H468V264H455z"/><path fill="#FFF" d="M467 251H512V264H467zM0 263H13V276H0z"/><path fill="#FFF" d="M11 263H24V276H11z"/><path fill="#FFF" d="M23 263H36V276H23z"/><path fill="#FFF" d="M35 263H48V276H35z"/><path fill="#FFF" d="M47 263H60V276H47z"/><path fill="#FFF" d="M59 263H72V276H59z"/><path fill="#FFF" d="M71 263H84V276H71z"/><path fill="#FCFCFC" d="M83 263H96V276H83z"/><path fill="#81A7DF" d="M95 263H108V276H95z"/><path fill="#0D5BD2" d="M107 263H120V276H107z"/><path fill="#0C5BD2" d="M119 263H132V276H119z"/><path fill="#0C5BD2" d="M131 263H144V276H131z"/><path fill="#0C5BD2" d="M143 263H156V276H143z"/><path fill="#0C5BD2" d="M155 263H168V276H155z"/><path fill="#0C5BD2" d="M167 263H180V276H167z"/><path fill="#0C5BD2" d="M179 263H192V276H179z"/><path fill="#0C5BD2" d="M191 263H204V276H191z"/><path fill="#1679E8" d="M203 263H216V276H203z"/><path fill="#2094FC" d="M215 263H228V276H215z"/><path fill="#259AFD" d="M227 263H240V276H227z"/><path fill="#2DA5FE" d="M239 263H252V276H239z"/><path fill="#2EA6FF" d="M251 263H264V276H251z"/><path fill="#2EA6FF" d="M263 263H276V276H263z"/><path fill="#2EA6FF" d="M275 263H288V276H275z"/><path fill="#2EA6FF" d="M287 263H300V276H287z"/><path fill="#2EA6FF" d="M299 263H312V276H299z"/><path fill="#2EA6FF" d="M311 263H324V276H311z"/><path fill="#2EA6FF" d="M323 263H336V276H323z"/><path fill="#77C1F5" d="M335 263H348V276H335z"/><path fill="#EFF1F2" d="M347 263H360V276H347z"/><path fill="#FEFEFE" d="M359 263H372V276H359z"/><path fill="#FFF" d="M371 263H384V276H371z"/><path fill="#FFF" d="M383 263H396V276H383z"/><path fill="#FFF" d="M395 263H408V276H395z"/><path fill="#FFF" d="M407 263H420V276H407z"/><path fill="#FFF" d="M419 263H432V276H419z"/><path fill="#FFF" d="M431 263H444V276H431z"/><path fill="#FFF" d="M443 263H456V276H443z"/><path fill="#FFF" d="M455 263H468V276H455z"/><path fill="#FFF" d="M467 263H512V276H467zM0 275H13V288H0z"/><path fill="#FFF" d="M11 275H24V288H11z"/><path fill="#FFF" d="M23 275H36V288H23z"/><path fill="#FFF" d="M35 275H48V288H35z"/><path fill="#FFF" d="M47 275H60V288H47z"/><path fill="#FFF" d="M59 275H72V288H59z"/><path fill="#FFF" d="M71 275H84V288H71z"/><path fill="#FEFEFE" d="M83 275H96V288H83z"/><path fill="#F4F5F5" d="M95 275H108V288H95z"/><path fill="#7FA5DE" d="M107 275H120V288H107z"/><path fill="#0D5BD2" d="M119 275H132V288H119z"/><path fill="#0C5BD2" d="M131 275H144V288H131z"/><path fill="#0C5BD2" d="M143 275H156V288H143z"/><path fill="#0C5BD2" d="M155 275H168V288H155z"/><path fill="#0C5BD2" d="M167 275H180V288H167z"/><path fill="#0C5BD2" d="M179 275H192V288H179z"/><path fill="#1679E8" d="M191 275H204V288H191z"/><path fill="#2094FC" d="M203 275H216V288H203z"/><path fill="#2094FC" d="M215 275H228V288H215z"/><path fill="#2094FC" d="M227 275H240V288H227z"/><path fill="#259AFD" d="M239 275H252V288H239z"/><path fill="#2DA5FE" d="M251 275H264V288H251z"/><path fill="#2EA6FF" d="M263 275H276V288H263z"/><path fill="#2EA6FF" d="M275 275H288V288H275z"/><path fill="#2EA6FF" d="M287 275H300V288H287z"/><path fill="#2EA6FF" d="M299 275H312V288H299z"/><path fill="#2EA6FF" d="M311 275H324V288H311z"/><path fill="#77C1F5" d="M323 275H336V288H323z"/><path fill="#EFF1F2" d="M335 275H348V288H335z"/><path fill="#FEFEFE" d="M347 275H360V288H347z"/><path fill="#FFF" d="M359 275H372V288H359z"/><path fill="#FFF" d="M371 275H384V288H371z"/><path fill="#FFF" d="M383 275H396V288H383z"/><path fill="#FFF" d="M395 275H408V288H395z"/><path fill="#FFF" d="M407 275H420V288H407z"/><path fill="#FFF" d="M419 275H432V288H419z"/><path fill="#FFF" d="M431 275H444V288H431z"/><path fill="#FFF" d="M443 275H456V288H443z"/><path fill="#FFF" d="M455 275H468V288H455z"/><path fill="#FFF" d="M467 275H512V288H467zM0 287H13V300H0z"/><path fill="#FFF" d="M11 287H24V300H11z"/><path fill="#FFF" d="M23 287H36V300H23z"/><path fill="#FFF" d="M35 287H48V300H35z"/><path fill="#FFF" d="M47 287H60V300H47z"/><path fill="#FFF" d="M59 287H72V300H59z"/><path fill="#FFF" d="M71 287H84V300H71z"/><path fill="#FFF" d="M83 287H96V300H83z"/><path fill="#FEFEFE" d="M95 287H108V300H95z"/><path fill="#F4F4F5" d="M107 287H120V300H107z"/><path fill="#7FA5DE" d="M119 287H132V300H119z"/><path fill="#0D5BD2" d="M131 287H144V300H131z"/><path fill="#0C5BD2" d="M143 287H156V300H143z"/><path fill="#0C5BD2" d="M155 287H168V300H155z"/><path fill="#0C5BD2" d="M167 287H180V300H167z"/><path fill="#1679E8" d="M179 287H192V300H179z"/><path fill="#2094FC" d="M191 287H204V300H191z"/><path fill="#2094FC" d="M203 287H216V300H203z"/><path fill="#2094FC" d="M215 287H228V300H215z"/><path fill="#2094FC" d="M227 287H240V300H227z"/><path fill="#2094FC" d="M239 287H252V300H239z"/><path fill="#2499FC" d="M251 287H264V300H251z"/><path fill="#2DA5FE" d="M263 287H276V300H263z"/><path fill="#2EA6FF" d="M275 287H288V300H275z"/><path fill="#2EA6FF" d="M287 287H300V300H287z"/><path fill="#2EA6FF" d="M299 287H312V300H299z"/><path fill="#77C1F5" d="M311 287H324V300H311z"/><path fill="#EFF1F2" d="M323 287H336V300H323z"/><path fill="#FEFEFE" d="M335 287H348V300H335z"/><path fill="#FFF" d="M347 287H360V300H347z"/><path fill="#FFF" d="M359 287H372V300H359z"/><path fill="#FFF" d="M371 287H384V300H371z"/><path fill="#FFF" d="M383 287H396V300H383z"/><path fill="#FFF" d="M395 287H408V300H395z"/><path fill="#FFF" d="M407 287H420V300H407z"/><path fill="#FFF" d="M419 287H432V300H419z"/><path fill="#FFF" d="M431 287H444V300H431z"/><path fill="#FFF" d="M443 287H456V300H443z"/><path fill="#FFF" d="M455 287H468V300H455z"/><path fill="#FFF" d="M467 287H512V300H467zM0 299H13V312H0z"/><path fill="#FFF" d="M11 299H24V312H11z"/><path fill="#FFF" d="M23 299H36V312H23z"/><path fill="#FFF" d="M35 299H48V312H35z"/><path fill="#FFF" d="M47 299H60V312H47z"/><path fill="#FFF" d="M59 299H72V312H59z"/><path fill="#FFF" d="M71 299H84V312H71z"/><path fill="#FFF" d="M83 299H96V312H83z"/><path fill="#FFF" d="M95 299H108V312H95z"/><path fill="#FEFEFE" d="M107 299H120V312H107z"/><path fill="#F4F5F5" d="M119 299H132V312H119z"/><path fill="#7FA5DE" d="M131 299H144V312H131z"/><path fill="#0D5BD2" d="M143 299H156V312H143z"/><path fill="#0C5BD2" d="M155 299H168V312H155z"/><path fill="#1679E8" d="M167 299H180V312H167z"/><path fill="#2094FC" d="M179 299H192V312H179z"/><path fill="#2094FC" d="M191 299H204V312H191z"/><path fill="#2094FC" d="M203 299H216V312H203z"/><path fill="#2094FC" d="M215 299H228V312H215z"/><path fill="#2094FC" d="M227 299H240V312H227z"/><path fill="#2094FC" d="M239 299H252V312H239z"/><path fill="#2094FC" d="M251 299H264V312H251z"/><path fill="#2499FC" d="M263 299H276V312H263z"/><path fill="#2DA5FE" d="M275 299H288V312H275z"/><path fill="#2EA6FF" d="M287 299H300V312H287z"/><path fill="#77C1F5" d="M299 299H312V312H299z"/><path fill="#EFF1F2" d="M311 299H324V312H311z"/><path fill="#FEFEFE" d="M323 299H336V312H323z"/><path fill="#FFF" d="M335 299H348V312H335z"/><path fill="#FFF" d="M347 299H360V312H347z"/><path fill="#FFF" d="M359 299H372V312H359z"/><path fill="#FFF" d="M371 299H384V312H371z"/><path fill="#FFF" d="M383 299H396V312H383z"/><path fill="#FFF" d="M395 299H408V312H395z"/><path fill="#FFF" d="M407 299H420V312H407z"/><path fill="#FFF" d="M419 299H432V312H419z"/><path fill="#FFF" d="M431 299H444V312H431z"/><path fill="#FFF" d="M443 299H456V312H443z"/><path fill="#FFF" d="M455 299H468V312H455z"/><path fill="#FFF" d="M467 299H512V312H467zM0 311H13V324H0z"/><path fill="#FFF" d="M11 311H24V324H11z"/><path fill="#FFF" d="M23 311H36V324H23z"/><path fill="#FFF" d="M35 311H48V324H35z"/><path fill="#FFF" d="M47 311H60V324H47z"/><path fill="#FFF" d="M59 311H72V324H59z"/><path fill="#FFF" d="M71 311H84V324H71z"/><path fill="#FFF" d="M83 311H96V324H83z"/><path fill="#FFF" d="M95 311H108V324H95z"/><path fill="#FFF" d="M107 311H120V324H107z"/><path fill="#FEFEFE" d="M119 311H132V324H119z"/><path fill="#F4F4F5" d="M131 311H144V324H131z"/><path fill="#7FA5DE" d="M143 311H156V324H143z"/><path fill="#1471E2" d="M155 311H168V324H155z"/><path fill="#2094FC" d="M167 311H180V324H167z"/><path fill="#2094FC" d="M179 311H192V324H179z"/><path fill="#2094FC" d="M191 311H204V324H191z"/><path fill="#2094FC" d="M203 311H216V324H203z"/><path fill="#2094FC" d="M215 311H228V324H215z"/><path fill="#2094FC" d="M227 311H240V324H227z"/><path fill="#2094FC" d="M239 311H252V324H239z"/><path fill="#2094FC" d="M251 311H264V324H251z"/><path fill="#2094FC" d="M263 311H276V324H263z"/><path fill="#2499FC" d="M275 311H288V324H275z"/><path fill="#77C0F5" d="M287 311H300V324H287z"/><path fill="#EFF1F2" d="M299 311H312V324H299z"/><path fill="#FEFEFE" d="M311 311H324V324H311z"/><path fill="#FFF" d="M323 311H336V324H323z"/><path fill="#FFF" d="M335 311H348V324H335z"/><path fill="#FFF" d="M347 311H360V324H347z"/><path fill="#FFF" d="M359 311H372V324H359z"/><path fill="#FFF" d="M371 311H384V324H371z"/><path fill="#FFF" d="M383 311H396V324H383z"/><path fill="#FFF" d="M395 311H408V324H395z"/><path fill="#FFF" d="M407 311H420V324H407z"/><path fill="#FFF" d="M419 311H432V324H419z"/><path fill="#FFF" d="M431 311H444V324H431z"/><path fill="#FFF" d="M443 311H456V324H443z"/><path fill="#FFF" d="M455 311H468V324H455z"/><path fill="#FFF" d="M467 311H512V324H467zM0 323H13V336H0z"/><path fill="#FFF" d="M11 323H24V336H11z"/><path fill="#FFF" d="M23 323H36V336H23z"/><path fill="#FFF" d="M35 323H48V336H35z"/><path fill="#FFF" d="M47 323H60V336H47z"/><path fill="#FFF" d="M59 323H72V336H59z"/><path fill="#FFF" d="M71 323H84V336H71z"/><path fill="#FFF" d="M83 323H96V336H83z"/><path fill="#FFF" d="M95 323H108V336H95z"/><path fill="#FFF" d="M107 323H120V336H107z"/><path fill="#FFF" d="M119 323H132V336H119z"/><path fill="#FEFEFE" d="M131 323H144V336H131z"/><path fill="#F4F4F5" d="M143 323H156V336H143z"/><path fill="#86B8EC" d="M155 323H168V336H155z"/><path fill="#2094FB" d="M167 323H180V336H167z"/><path fill="#2094FC" d="M179 323H192V336H179z"/><path fill="#2094FC" d="M191 323H204V336H191z"/><path fill="#2094FC" d="M203 323H216V336H203z"/><path fill="#2094FC" d="M215 323H228V336H215z"/><path fill="#2094FC" d="M227 323H240V336H227z"/><path fill="#2094FC" d="M239 323H252V336H239z"/><path fill="#2094FC" d="M251 323H264V336H251z"/><path fill="#2094FC" d="M263 323H276V336H263z"/><path fill="#70B7F3" d="M275 323H288V336H275z"/><path fill="#EEF1F2" d="M287 323H300V336H287z"/><path fill="#FEFEFE" d="M299 323H312V336H299z"/><path fill="#FFF" d="M311 323H324V336H311z"/><path fill="#FFF" d="M323 323H336V336H323z"/><path fill="#FFF" d="M335 323H348V336H335z"/><path fill="#FFF" d="M347 323H360V336H347z"/><path fill="#FFF" d="M359 323H372V336H359z"/><path fill="#FFF" d="M371 323H384V336H371z"/><path fill="#FFF" d="M383 323H396V336H383z"/><path fill="#FFF" d="M395 323H408V336H395z"/><path fill="#FFF" d="M407 323H420V336H407z"/><path fill="#FFF" d="M419 323H432V336H419z"/><path fill="#FFF" d="M431 323H444V336H431z"/><path fill="#FFF" d="M443 323H456V336H443z"/><path fill="#FFF" d="M455 323H468V336H455z"/><path fill="#FFF" d="M467 323H512V336H467zM0 335H13V348H0z"/><path fill="#FFF" d="M11 335H24V348H11z"/><path fill="#FFF" d="M23 335H36V348H23z"/><path fill="#FFF" d="M35 335H48V348H35z"/><path fill="#FFF" d="M47 335H60V348H47z"/><path fill="#FFF" d="M59 335H72V348H59z"/><path fill="#FFF" d="M71 335H84V348H71z"/><path fill="#FFF" d="M83 335H96V348H83z"/><path fill="#FFF" d="M95 335H108V348H95z"/><path fill="#FFF" d="M107 335H120V348H107z"/><path fill="#FFF" d="M119 335H132V348H119z"/><path fill="#FFF" d="M131 335H144V348H131z"/><path fill="#FEFEFE" d="M143 335H156V348H143z"/><path fill="#F4F4F5" d="M155 335H168V348H155z"/><path fill="#88C0F1" d="M167 335H180V348H167z"/><path fill="#2094FB" d="M179 335H192V348H179z"/><path fill="#2094FC" d="M191 335H204V348H191z"/><path fill="#2094FC" d="M203 335H216V348H203z"/><path fill="#2094FC" d="M215 335H228V348H215z"/><path fill="#2094FC" d="M227 335H240V348H227z"/><path fill="#2094FC" d="M239 335H252V348H239z"/><path fill="#2094FC" d="M251 335H264V348H251z"/><path fill="#6FB6F3" d="M263 335H276V348H263z"/><path fill="#EEF1F2" d="M275 335H288V348H275z"/><path fill="#FEFEFE" d="M287 335H300V348H287z"/><path fill="#FFF" d="M299 335H312V348H299z"/><path fill="#FFF" d="M311 335H324V348H311z"/><path fill="#FFF" d="M323 335H336V348H323z"/><path fill="#FFF" d="M335 335H348V348H335z"/><path fill="#FFF" d="M347 335H360V348H347z"/><path fill="#FFF" d="M359 335H372V348H359z"/><path fill="#FFF" d="M371 335H384V348H371z"/><path fill="#FFF" d="M383 335H396V348H383z"/><path fill="#FFF" d="M395 335H408V348H395z"/><path fill="#FFF" d="M407 335H420V348H407z"/><path fill="#FFF" d="M419 335H432V348H419z"/><path fill="#FFF" d="M431 335H444V348H431z"/><path fill="#FFF" d="M443 335H456V348H443z"/><path fill="#FFF" d="M455 335H468V348H455z"/><path fill="#FFF" d="M467 335H512V348H467zM0 347H13V360H0z"/><path fill="#FFF" d="M11 347H24V360H11z"/><path fill="#FFF" d="M23 347H36V360H23z"/><path fill="#FFF" d="M35 347H48V360H35z"/><path fill="#FFF" d="M47 347H60V360H47z"/><path fill="#FFF" d="M59 347H72V360H59z"/><path fill="#FFF" d="M71 347H84V360H71z"/><path fill="#FFF" d="M83 347H96V360H83z"/><path fill="#FFF" d="M95 347H108V360H95z"/><path fill="#FFF" d="M107 347H120V360H107z"/><path fill="#FFF" d="M119 347H132V360H119z"/><path fill="#FFF" d="M131 347H144V360H131z"/><path fill="#FFF" d="M143 347H156V360H143z"/><path fill="#FEFEFE" d="M155 347H168V360H155z"/><path fill="#F4F4F5" d="M167 347H180V360H167z"/><path fill="#88C0F1" d="M179 347H192V360H179z"/><path fill="#2094FB" d="M191 347H204V360H191z"/><path fill="#2094FC" d="M203 347H216V360H203z"/><path fill="#2094FC" d="M215 347H228V360H215z"/><path fill="#2094FC" d="M227 347H240V360H227z"/><path fill="#2094FC" d="M239 347H252V360H239z"/><path fill="#6FB6F3" d="M251 347H264V360H251z"/><path fill="#EEF0F2" d="M263 347H276V360H263z"/><path fill="#FDFDFD" d="M275 347H288V360H275z"/><path fill="#FFF" d="M287 347H300V360H287z"/><path fill="#FFF" d="M299 347H312V360H299z"/><path fill="#FFF" d="M311 347H324V360H311z"/><path fill="#FFF" d="M323 347H336V360H323z"/><path fill="#FFF" d="M335 347H348V360H335z"/><path fill="#FFF" d="M347 347H360V360H347z"/><path fill="#FFF" d="M359 347H372V360H359z"/><path fill="#FFF" d="M371 347H384V360H371z"/><path fill="#FFF" d="M383 347H396V360H383z"/><path fill="#FFF" d="M395 347H408V360H395z"/><path fill="#FFF" d="M407 347H420V360H407z"/><path fill="#FFF" d="M419 347H432V360H419z"/><path fill="#FFF" d="M431 347H444V360H431z"/><path fill="#FFF" d="M443 347H456V360H443z"/><path fill="#FFF" d="M455 347H468V360H455z"/><path fill="#FFF" d="M467 347H512V360H467zM0 359H13V372H0z"/><path fill="#FFF" d="M11 359H24V372H11z"/><path fill="#FFF" d="M23 359H36V372H23z"/><path fill="#FFF" d="M35 359H48V372H35z"/><path fill="#FFF" d="M47 359H60V372H47z"/><path fill="#FFF" d="M59 359H72V372H59z"/><path fill="#FFF" d="M71 359H84V372H71z"/><path fill="#FFF" d="M83 359H96V372H83z"/><path fill="#FFF" d="M95 359H108V372H95z"/><path fill="#FFF" d="M107 359H120V372H107z"/><path fill="#FFF" d="M119 359H132V372H119z"/><path fill="#FFF" d="M131 359H144V372H131z"/><path fill="#FFF" d="M143 359H156V372H143z"/><path fill="#FFF" d="M155 359H168V372H155z"/><path fill="#FEFEFE" d="M167 359H180V372H167z"/><path fill="#F4F5F5" d="M179 359H192V372H179z"/><path fill="#88C0F1" d="M191 359H204V372H191z"/><path fill="#2094FB" d="M203 359H216V372H203z"/><path fill="#2094FC" d="M215 359H228V372H215z"/><path fill="#2094FC" d="M227 359H240V372H227z"/><path fill="#6FB6F3" d="M239 359H252V372H239z"/><path fill="#EEF0F2" d="M251 359H264V372H251z"/><path fill="#FDFDFD" d="M263 359H276V372H263z"/><path fill="#FFF" d="M275 359H288V372H275z"/><path fill="#FFF" d="M287 359H300V372H287z"/><path fill="#FFF" d="M299 359H312V372H299z"/><path fill="#FFF" d="M311 359H324V372H311z"/><path fill="#FFF" d="M323 359H336V372H323z"/><path fill="#FFF" d="M335 359H348V372H335z"/><path fill="#FFF" d="M347 359H360V372H347z"/><path fill="#FFF" d="M359 359H372V372H359z"/><path fill="#FFF" d="M371 359H384V372H371z"/><path fill="#FFF" d="M383 359H396V372H383z"/><path fill="#FFF" d="M395 359H408V372H395z"/><path fill="#FFF" d="M407 359H420V372H407z"/><path fill="#FFF" d="M419 359H432V372H419z"/><path fill="#FFF" d="M431 359H444V372H431z"/><path fill="#FFF" d="M443 359H456V372H443z"/><path fill="#FFF" d="M455 359H468V372H455z"/><path fill="#FFF" d="M467 359H512V372H467zM0 371H13V384H0z"/><path fill="#FFF" d="M11 371H24V384H11z"/><path fill="#FFF" d="M23 371H36V384H23z"/><path fill="#FFF" d="M35 371H48V384H35z"/><path fill="#FFF" d="M47 371H60V384H47z"/><path fill="#FFF" d="M59 371H72V384H59z"/><path fill="#FFF" d="M71 371H84V384H71z"/><path fill="#FFF" d="M83 371H96V384H83z"/><path fill="#FFF" d="M95 371H108V384H95z"/><path fill="#FFF" d="M107 371H120V384H107z"/><path fill="#FFF" d="M119 371H132V384H119z"/><path fill="#FFF" d="M131 371H144V384H131z"/><path fill="#FFF" d="M143 371H156V384H143z"/><path fill="#FFF" d="M155 371H168V384H155z"/><path fill="#FFF" d="M167 371H180V384H167z"/><path fill="#FEFEFE" d="M179 371H192V384H179z"/><path fill="#F4F5F5" d="M191 371H204V384H191z"/><path fill="#8AC0F1" d="M203 371H216V384H203z"/><path fill="#2596FB" d="M215 371H228V384H215z"/><path fill="#72B7F3" d="M227 371H240V384H227z"/><path fill="#EEF0F1" d="M239 371H252V384H239z"/><path fill="#FDFDFD" d="M251 371H264V384H251z"/><path fill="#FFF" d="M263 371H276V384H263z"/><path fill="#FFF" d="M275 371H288V384H275z"/><path fill="#FFF" d="M287 371H300V384H287z"/><path fill="#FFF" d="M299 371H312V384H299z"/><path fill="#FFF" d="M311 371H324V384H311z"/><path fill="#FFF" d="M323 371H336V384H323z"/><path fill="#FFF" d="M335 371H348V384H335z"/><path fill="#FFF" d="M347 371H360V384H347z"/><path fill="#FFF" d="M359 371H372V384H359z"/><path fill="#FFF" d="M371 371H384V384H371z"/><path fill="#FFF" d="M383 371H396V384H383z"/><path fill="#FFF" d="M395 371H408V384H395z"/><path fill="#FFF" d="M407 371H420V384H407z"/><path fill="#FFF" d="M419 371H432V384H419z"/><path fill="#FFF" d="M431 371H444V384H431z"/><path fill="#FFF" d="M443 371H456V384H443z"/><path fill="#FFF" d="M455 371H468V384H455z"/><path fill="#FFF" d="M467 371H512V384H467zM0 383H13V396H0z"/><path fill="#FFF" d="M11 383H24V396H11z"/><path fill="#FFF" d="M23 383H36V396H23z"/><path fill="#FFF" d="M35 383H48V396H35z"/><path fill="#FFF" d="M47 383H60V396H47z"/><path fill="#FFF" d="M59 383H72V396H59z"/><path fill="#FFF" d="M71 383H84V396H71z"/><path fill="#FFF" d="M83 383H96V396H83z"/><path fill="#FFF" d="M95 383H108V396H95z"/><path fill="#FFF" d="M107 383H120V396H107z"/><path fill="#FFF" d="M119 383H132V396H119z"/><path fill="#FFF" d="M131 383H144V396H131z"/><path fill="#FFF" d="M143 383H156V396H143z"/><path fill="#FFF" d="M155 383H168V396H155z"/><path fill="#FFF" d="M167 383H180V396H167z"/><path fill="#FFF" d="M179 383H192V396H179z"/><path fill="#FEFEFE" d="M191 383H204V396H191z"/><path fill="#F5F5F5" d="M203 383H216V396H203z"/><path fill="#DEE5EB" d="M215 383H228V396H215z"/><path fill="#F2F2F2" d="M227 383H240V396H227z"/><path fill="#FEFEFE" d="M239 383H252V396H239z"/><path fill="#FFF" d="M251 383H264V396H251z"/><path fill="#FFF" d="M263 383H276V396H263z"/><path fill="#FFF" d="M275 383H288V396H275z"/><path fill="#FFF" d="M287 383H300V396H287z"/><path fill="#FFF" d="M299 383H312V396H299z"/><path fill="#FFF" d="M311 383H324V396H311z"/><path fill="#FFF" d="M323 383H336V396H323z"/><path fill="#FFF" d="M335 383H348V396H335z"/><path fill="#FFF" d="M347 383H360V396H347z"/><path fill="#FFF" d="M359 383H372V396H359z"/><path fill="#FFF" d="M371 383H384V396H371z"/><path fill="#FFF" d="M383 383H396V396H383z"/><path fill="#FFF" d="M395 383H408V396H395z"/><path fill="#FFF" d="M407 383H420V396H407z"/><path fill="#FFF" d="M419 383H432V396H419z"/><path fill="#FFF" d="M431 383H444V396H431z"/><path fill="#FFF" d="M443 383H456V396H443z"/><path fill="#FFF" d="M455 383H468V396H455z"/><path fill="#FFF" d="M467 383H512V396H467zM0 395H13V408H0z"/><path fill="#FFF" d="M11 395H24V408H11z"/><path fill="#FFF" d="M23 395H36V408H23z"/><path fill="#FFF" d="M35 395H48V408H35z"/><path fill="#FFF" d="M47 395H60V408H47z"/><path fill="#FFF" d="M59 395H72V408H59z"/><path fill="#FFF" d="M71 395H84V408H71z"/><path fill="#FFF" d="M83 395H96V408H83z"/><path fill="#FFF" d="M95 395H108V408H95z"/><path fill="#FFF" d="M107 395H120V408H107z"/><path fill="#FFF" d="M119 395H132V408H119z"/><path fill="#FFF" d="M131 395H144V408H131z"/><path fill="#FFF" d="M143 395H156V408H143z"/><path fill="#FFF" d="M155 395H168V408H155z"/><path fill="#FFF" d="M167 395H180V408H167z"/><path fill="#FFF" d="M179 395H192V408H179z"/><path fill="#FFF" d="M191 395H204V408H191z"/><path fill="#FEFEFE" d="M203 395H216V408H203z"/><path fill="#FDFDFD" d="M215 395H228V408H215z"/><path fill="#FEFEFE" d="M227 395H240V408H227z"/><path fill="#FFF" d="M239 395H252V408H239z"/><path fill="#FFF" d="M251 395H264V408H251z"/><path fill="#FFF" d="M263 395H276V408H263z"/><path fill="#FFF" d="M275 395H288V408H275z"/><path fill="#FFF" d="M287 395H300V408H287z"/><path fill="#FFF" d="M299 395H312V408H299z"/><path fill="#FFF" d="M311 395H324V408H311z"/><path fill="#FFF" d="M323 395H336V408H323z"/><path fill="#FFF" d="M335 395H348V408H335z"/><path fill="#FFF" d="M347 395H360V408H347z"/><path fill="#FFF" d="M359 395H372V408H359z"/><path fill="#FFF" d="M371 395H384V408H371z"/><path fill="#FFF" d="M383 395H396V408H383z"/><path fill="#FFF" d="M395 395H408V408H395z"/><path fill="#FFF" d="M407 395H420V408H407z"/><path fill="#FFF" d="M419 395H432V408H419z"/><path fill="#FFF" d="M431 395H444V408H431z"/><path fill="#FFF" d="M443 395H456V408H443z"/><path fill="#FFF" d="M455 395H468V408H455z"/><path fill="#FFF" d="M467 395H512V408H467zM0 407H13V420H0z"/><path fill="#FFF" d="M11 407H24V420H11z"/><path fill="#FFF" d="M23 407H36V420H23z"/><path fill="#FFF" d="M35 407H48V420H35z"/><path fill="#FFF" d="M47 407H60V420H47z"/><path fill="#FFF" d="M59 407H72V420H59z"/><path fill="#FFF" d="M71 407H84V420H71z"/><path fill="#FFF" d="M83 407H96V420H83z"/><path fill="#FFF" d="M95 407H108V420H95z"/><path fill="#FFF" d="M107 407H120V420H107z"/><path fill="#FFF" d="M119 407H132V420H119z"/><path fill="#FFF" d="M131 407H144V420H131z"/><path fill="#FFF" d="M143 407H156V420H143z"/><path fill="#FFF" d="M155 407H168V420H155z"/><path fill="#FFF" d="M167 407H180V420H167z"/><path fill="#FFF" d="M179 407H192V420H179z"/><path fill="#FFF" d="M191 407H204V420H191z"/><path fill="#FFF" d="M203 407H216V420H203z"/><path fill="#FFF" d="M215 407H228V420H215z"/><path fill="#FFF" d="M227 407H240V420H227z"/><path fill="#FFF" d="M239 407H252V420H239z"/><path fill="#FFF" d="M251 407H264V420H251z"/><path fill="#FFF" d="M263 407H276V420H263z"/><path fill="#FFF" d="M275 407H288V420H275z"/><path fill="#FFF" d="M287 407H300V420H287z"/><path fill="#FFF" d="M299 407H312V420H299z"/><path fill="#FFF" d="M311 407H324V420H311z"/><path fill="#FFF" d="M323 407H336V420H323z"/><path fill="#FFF" d="M335 407H348V420H335z"/><path fill="#FFF" d="M347 407H360V420H347z"/><path fill="#FFF" d="M359 407H372V420H359z"/><path fill="#FFF" d="M371 407H384V420H371z"/><path fill="#FFF" d="M383 407H396V420H383z"/><path fill="#FFF" d="M395 407H408V420H395z"/><path fill="#FFF" d="M407 407H420V420H407z"/><path fill="#FFF" d="M419 407H432V420H419z"/><path fill="#FFF" d="M431 407H444V420H431z"/><path fill="#FFF" d="M443 407H456V420H443z"/><path fill="#FFF" d="M455 407H468V420H455z"/><path fill="#FFF" d="M467 407H512V420H467zM0 419H13V432H0z"/><path fill="#FFF" d="M11 419H24V432H11z"/><path fill="#FFF" d="M23 419H36V432H23z"/><path fill="#FFF" d="M35 419H48V432H35z"/><path fill="#FFF" d="M47 419H60V432H47z"/><path fill="#FFF" d="M59 419H72V432H59z"/><path fill="#FFF" d="M71 419H84V432H71z"/><path fill="#FFF" d="M83 419H96V432H83z"/><path fill="#FFF" d="M95 419H108V432H95z"/><path fill="#FFF" d="M107 419H120V432H107z"/><path fill="#FFF" d="M119 419H132V432H119z"/><path fill="#FFF" d="M131 419H144V432H131z"/><path fill="#FFF" d="M143 419H156V432H143z"/><path fill="#FFF" d="M155 419H168V432H155z"/><path fill="#FFF" d="M167 419H180V432H167z"/><path fill="#FFF" d="M179 419H192V432H179z"/><path fill="#FFF" d="M191 419H204V432H191z"/><path fill="#FFF" d="M203 419H216V432H203z"/><path fill="#FFF" d="M215 419H228V432H215z"/><path fill="#FFF" d="M227 419H240V432H227z"/><path fill="#FFF" d="M239 419H252V432H239z"/><path fill="#FFF" d="M251 419H264V432H251z"/><path fill="#FFF" d="M263 419H276V432H263z"/><path fill="#FFF" d="M275 419H288V432H275z"/><path fill="#FFF" d="M287 419H300V432H287z"/><path fill="#FFF" d="M299 419H312V432H299z"/><path fill="#FFF" d="M311 419H324V432H311z"/><path fill="#FFF" d="M323 419H336V432H323z"/><path fill="#FFF" d="M335 419H348V432H335z"/><path fill="#FFF" d="M347 419H360V432H347z"/><path fill="#FFF" d="M359 419H372V432H359z"/><path fill="#FFF" d="M371 419H384V432H371z"/><path fill="#FFF" d="M383 419H396V432H383z"/><path fill="#FFF" d="M395 419H408V432H395z"/><path fill="#FFF" d="M407 419H420V432H407z"/><path fill="#FFF" d="M419 419H432V432H419z"/><path fill="#FFF" d="M431 419H444V432H431z"/><path fill="#FFF" d="M443 419H456V432H443z"/><path fill="#FFF" d="M455 419H468V432H455z"/><path fill="#FFF" d="M467 419H512V432H467zM0 431H13V444H0z"/><path fill="#FFF" d="M11 431H24V444H11z"/><path fill="#FFF" d="M23 431H36V444H23z"/><path fill="#FFF" d="M35 431H48V444H35z"/><path fill="#FFF" d="M47 431H60V444H47z"/><path fill="#FFF" d="M59 431H72V444H59z"/><path fill="#FFF" d="M71 431H84V444H71z"/><path fill="#FFF" d="M83 431H96V444H83z"/><path fill="#FFF" d="M95 431H108V444H95z"/><path fill="#FFF" d="M107 431H120V444H107z"/><path fill="#FFF" d="M119 431H132V444H119z"/><path fill="#FFF" d="M131 431H144V444H131z"/><path fill="#FFF" d="M143 431H156V444H143z"/><path fill="#FFF" d="M155 431H168V444H155z"/><path fill="#FFF" d="M167 431H180V444H167z"/><path fill="#FFF" d="M179 431H192V444H179z"/><path fill="#FFF" d="M191 431H204V444H191z"/><path fill="#FFF" d="M203 431H216V444H203z"/><path fill="#FFF" d="M215 431H228V444H215z"/><path fill="#FFF" d="M227 431H240V444H227z"/><path fill="#FFF" d="M239 431H252V444H239z"/><path fill="#FFF" d="M251 431H264V444H251z"/><path fill="#FFF" d="M263 431H276V444H263z"/><path fill="#FFF" d="M275 431H288V444H275z"/><path fill="#FFF" d="M287 431H300V444H287z"/><path fill="#FFF" d="M299 431H312V444H299z"/><path fill="#FFF" d="M311 431H324V444H311z"/><path fill="#FFF" d="M323 431H336V444H323z"/><path fill="#FFF" d="M335 431H348V444H335z"/><path fill="#FFF" d="M347 431H360V444H347z"/><path fill="#FFF" d="M359 431H372V444H359z"/><path fill="#FFF" d="M371 431H384V444H371z"/><path fill="#FFF" d="M383 431H396V444H383z"/><path fill="#FFF" d="M395 431H408V444H395z"/><path fill="#FFF" d="M407 431H420V444H407z"/><path fill="#FFF" d="M419 431H432V444H419z"/><path fill="#FFF" d="M431 431H444V444H431z"/><path fill="#FFF" d="M443 431H456V444H443z"/><path fill="#FFF" d="M455 431H468V444H455z"/><path fill="#FFF" d="M467 431H512V444H467zM0 443H13V456H0z"/><path fill="#FFF" d="M11 443H24V456H11z"/><path fill="#FFF" d="M23 443H36V456H23z"/><path fill="#FFF" d="M35 443H48V456H35z"/><path fill="#FFF" d="M47 443H60V456H47z"/><path fill="#FFF" d="M59 443H72V456H59z"/><path fill="#FFF" d="M71 443H84V456H71z"/><path fill="#FFF" d="M83 443H96V456H83z"/><path fill="#FFF" d="M95 443H108V456H95z"/><path fill="#FFF" d="M107 443H120V456H107z"/><path fill="#FFF" d="M119 443H132V456H119z"/><path fill="#FFF" d="M131 443H144V456H131z"/><path fill="#FFF" d="M143 443H156V456H143z"/><path fill="#FFF" d="M155 443H168V456H155z"/><path fill="#FFF" d="M167 443H180V456H167z"/><path fill="#FFF" d="M179 443H192V456H179z"/><path fill="#FFF" d="M191 443H204V456H191z"/><path fill="#FFF" d="M203 443H216V456H203z"/><path fill="#FFF" d="M215 443H228V456H215z"/><path fill="#FFF" d="M227 443H240V456H227z"/><path fill="#FFF" d="M239 443H252V456H239z"/><path fill="#FFF" d="M251 443H264V456H251z"/><path fill="#FFF" d="M263 443H276V456H263z"/><path fill="#FFF" d="M275 443H288V456H275z"/><path fill="#FFF" d="M287 443H300V456H287z"/><path fill="#FFF" d="M299 443H312V456H299z"/><path fill="#FFF" d="M311 443H324V456H311z"/><path fill="#FFF" d="M323 443H336V456H323z"/><path fill="#FFF" d="M335 443H348V456H335z"/><path fill="#FFF" d="M347 443H360V456H347z"/><path fill="#FFF" d="M359 443H372V456H359z"/><path fill="#FFF" d="M371 443H384V456H371z"/><path fill="#FFF" d="M383 443H396V456H383z"/><path fill="#FFF" d="M395 443H408V456H395z"/><path fill="#FFF" d="M407 443H420V456H407z"/><path fill="#FFF" d="M419 443H432V456H419z"/><path fill="#FFF" d="M431 443H444V456H431z"/><path fill="#FFF" d="M443 443H456V456H443z"/><path fill="#FFF" d="M455 443H468V456H455z"/><path fill="#FFF" d="M467 443H512V456H467zM0 455H13V468H0z"/><path fill="#FFF" d="M11 455H24V468H11z"/><path fill="#FFF" d="M23 455H36V468H23z"/><path fill="#FFF" d="M35 455H48V468H35z"/><path fill="#FFF" d="M47 455H60V468H47z"/><path fill="#FFF" d="M59 455H72V468H59z"/><path fill="#FFF" d="M71 455H84V468H71z"/><path fill="#FFF" d="M83 455H96V468H83z"/><path fill="#FFF" d="M95 455H108V468H95z"/><path fill="#FFF" d="M107 455H120V468H107z"/><path fill="#FFF" d="M119 455H132V468H119z"/><path fill="#FFF" d="M131 455H144V468H131z"/><path fill="#FFF" d="M143 455H156V468H143z"/><path fill="#FFF" d="M155 455H168V468H155z"/><path fill="#FFF" d="M167 455H180V468H167z"/><path fill="#FFF" d="M179 455H192V468H179z"/><path fill="#FFF" d="M191 455H204V468H191z"/><path fill="#FFF" d="M203 455H216V468H203z"/><path fill="#FFF" d="M215 455H228V468H215z"/><path fill="#FFF" d="M227 455H240V468H227z"/><path fill="#FFF" d="M239 455H252V468H239z"/><path fill="#FFF" d="M251 455H264V468H251z"/><path fill="#FFF" d="M263 455H276V468H263z"/><path fill="#FFF" d="M275 455H288V468H275z"/><path fill="#FFF" d="M287 455H300V468H287z"/><path fill="#FFF" d="M299 455H312V468H299z"/><path fill="#FFF" d="M311 455H324V468H311z"/><path fill="#FFF" d="M323 455H336V468H323z"/><path fill="#FFF" d="M335 455H348V468H335z"/><path fill="#FFF" d="M347 455H360V468H347z"/><path fill="#FFF" d="M359 455H372V468H359z"/><path fill="#FFF" d="M371 455H384V468H371z"/><path fill="#FFF" d="M383 455H396V468H383z"/><path fill="#FFF" d="M395 455H408V468H395z"/><path fill="#FFF" d="M407 455H420V468H407z"/><path fill="#FFF" d="M419 455H432V468H419z"/><path fill="#FFF" d="M431 455H444V468H431z"/><path fill="#FFF" d="M443 455H456V468H443z"/><path fill="#FFF" d="M455 455H468V468H455z"/><path fill="#FFF" d="M467 455H512V468H467zM0 467H13V512H0z"/><path fill="#FFF" d="M11 467H24V512H11z"/><path fill="#FFF" d="M23 467H36V512H23z"/><path fill="#FFF" d="M35 467H48V512H35z"/><path fill="#FFF" d="M47 467H60V512H47z"/><path fill="#FFF" d="M59 467H72V512H59z"/><path fill="#FFF" d="M71 467H84V512H71z"/><path fill="#FFF" d="M83 467H96V512H83z"/><path fill="#FFF" d="M95 467H108V512H95z"/><path fill="#FFF" d="M107 467H120V512H107z"/><path fill="#FFF" d="M119 467H132V512H119z"/><path fill="#FFF" d="M131 467H144V512H131z"/><path fill="#FFF" d="M143 467H156V512H143z"/><path fill="#FFF" d="M155 467H168V512H155z"/><path fill="#FFF" d="M167 467H180V512H167z"/><path fill="#FFF" d="M179 467H192V512H179z"/><path fill="#FFF" d="M191 467H204V512H191z"/><path fill="#FFF" d="M203 467H216V512H203z"/><path fill="#FFF" d="M215 467H228V512H215z"/><path fill="#FFF" d="M227 467H240V512H227z"/><path fill="#FFF" d="M239 467H252V512H239z"/><path fill="#FFF" d="M251 467H264V512H251z"/><path fill="#FFF" d="M263 467H276V512H263z"/><path fill="#FFF" d="M275 467H288V512H275z"/><path fill="#FFF" d="M287 467H300V512H287z"/><path fill="#FFF" d="M299 467H312V512H299z"/><path fill="#FFF" d="M311 467H324V512H311z"/><path fill="#FFF" d="M323 467H336V512H323z"/><path fill="#FFF" d="M335 467H348V512H335z"/><path fill="#FFF" d="M347 467H360V512H347z"/><path fill="#FFF" d="M359 467H372V512H359z"/><path fill="#FFF" d="M371 467H384V512H371z"/><path fill="#FFF" d="M383 467H396V512H383z"/><path fill="#FFF" d="M395 467H408V512H395z"/><path fill="#FFF" d="M407 467H420V512H407z"/><path fill="#FFF" d="M419 467H432V512H419z"/><path fill="#FFF" d="M431 467H444V512H431z"/><path fill="#FFF" d="M443 467H456V512H443z"/><path fill="#FFF" d="M455 467H468V512H455z"/><path fill="#FFF" d="M467 467H512V512H467z"/><path d="M148.5 196.9c-1.6 1-14.1 13.1-27.8 26.8-26.7 26.8-27.6 28.1-25.6 35.7.9 3.5 6 9 35.2 38.1 18.7 18.7 33.6 33.3 33 32.5-1.8-2.5-2.4-7.3-1.3-11 .8-2.6 8.3-10.8 30.7-33.2l29.8-29.8-29-29c-15.9-16-30.4-29.7-32.1-30.5-4.3-2-9.3-1.9-12.9.4z" fill="#0C5FD2"/><g fill="#E5E5E5"><path d="M3225 2219c-746-746-937-931-965-939-83-23-66-37-707 603-326 326-590 583-587 572 4-11 15-33 25-50 10-16 280-292 601-613 558-556 585-582 620-582 20 0 48 4 62 9 40 16 1837 1824 1864 1877 13 25 22 47 20 49s-422-414-933-926z" transform="matrix(.1 0 0 -.1 0 512)"/><path d="M2050 2735c80-80 147-145 150-145 2 0-60 65-140 145s-147 145-150 145c-2 0 60-65 140-145z" transform="matrix(.1 0 0 -.1 0 512)"/></g><g fill="#C5D8EB"><path d="M3548 3843c12-2 30-2 40 0 9 3-1 5-23 4-22 0-30-2-17-4zM2845 3188l-630-633 633 630c587 586 636 635 629 635-1 0-286-285-632-632zM3895 3570c137-137 252-250 255-250s-108 113-245 250c-137 138-252 250-255 250s108-112 245-250zM4171 3254c0-11 3-14 6-6 3 7 2 16-1 19-3 4-6-2-5-13zM4171 3204c0-11 3-14 6-6 3 7 2 16-1 19-3 4-6-2-5-13zM1533 3173c9-2 25-2 35 0 9 3 1 5-18 5s-27-2-17-5zM1775 3010c71-71 132-130 135-130 2 0-54 59-125 130-71 72-132 130-135 130-2 0 54-58 125-130zM1550 1885c322-322 587-585 590-585s-258 263-580 585-587 585-590 585 258-263 580-585zM2218 1273c7-3 16-2 19 1 4 3-2 6-13 5-11 0-14-3-6-6z" transform="matrix(.1 0 0 -.1 0 512)"/></g><path d="M415.5 198.8c-1.8 5.5-4.8 8.6-91.9 96.2-49.6 49.8-91.4 91.6-92.9 92.9-1.9 1.6-4.5 2.6-7.9 2.9l-5 .5-59.8-59.9c-56-56.1-59.9-60.2-61.5-65.2-.9-2.8-2-5-2.4-4.7-1.5.9 0 9 2.4 13 1.3 2.2 28.4 29.9 60.2 61.6 62.6 62.5 61 61.1 69.5 58.9 5.1-1.4-3.7 7.1 106.2-102.8 45-45.1 82.7-83.3 83.7-85 1.7-2.6 2.9-12.5 1.7-13.7-.2-.2-1.3 2.1-2.3 5.3z" fill="#F2F2F2"/><path d="M192.2 286.3c-30.8 30.8-31.9 32.2-30.6 39.7.6 2.9 4.9 7.8 25.7 28.7 14.3 14.4 26.8 26.1 29.2 27.4 3.2 1.7 5 2 8.1 1.5 3.5-.7 7.3-4.2 34.1-30.9 21.1-21 29.9-30.4 29.3-31.2-.6-.7-.7-1.5-.3-1.8.3-.4-.1-.7-1-.7-.8 0-2.4-1.1-3.5-2.5-1.1-1.3-2.3-2.1-2.7-1.7-.4.4-.5-.2-.3-1.3.2-1.5-.2-1.9-1.7-1.7-1.1.2-1.7.1-1.3-.3.4-.4-.9-2-2.8-3.7-1.9-1.6-3.1-3.4-2.8-3.9.3-.5.1-.8-.4-.7-1.4.4-10.2-7.8-9.4-8.7.4-.5-.1-.5-1.1-.2-1 .4-1.6.3-1.3-.1.3-.5-1.5-2.8-3.9-5.2-2.5-2.4-4.5-4-4.5-3.5s-.8-.2-1.7-1.5c-.9-1.4-2.3-2.9-3-3.3-.7-.5-1.1-1.2-.8-1.8.4-.5-.2-.6-1.1-.2-1.2.4-1.5.3-1-.5.4-.7.1-1.2-.9-1.2-.8 0-1.9-1-2.4-2.3-.8-2-5.1-6.7-5.1-5.5 0 .4-3-2.3-6.6-5.8-3.6-3.5-6.6-6.4-6.7-6.4-.1 0-13.4 13.2-29.5 29.3z" fill="#2699FF"/><path d="m251.5 227-29.8 29.8 6.6 6.5c3.7 3.6 6.7 6.3 6.7 5.9 0-1.2 4.3 3.5 5.1 5.5.5 1.3 1.6 2.3 2.4 2.3 1 0 1.3.5.9 1.2-.5.8-.2.9 1 .5.9-.4 1.5-.3 1.1.2-.3.6.1 1.3.8 1.8.7.4 2.1 1.9 3 3.3.9 1.3 1.7 2 1.7 1.5s2 1.1 4.5 3.5c2.4 2.4 4.2 4.7 3.9 5.2-.3.4.3.5 1.3.1 1-.3 1.5-.3 1.1.2-.8.9 8 9.1 9.4 8.7.5-.1.7.2.4.7-.3.5.9 2.3 2.8 3.9 1.9 1.7 3.2 3.3 2.8 3.7-.4.4.2.5 1.3.3 1.5-.2 1.9.2 1.7 1.7-.2 1.1-.1 1.7.3 1.3.4-.4 1.6.4 2.7 1.7 1.1 1.4 2.6 2.5 3.4 2.5.8 0 1.3.5 1.1 1.1-.8 3.8 4.9-1.2 31.3-27.6l29.5-29.5-3.3-3c-1.8-1.6-3.7-3-4.2-3s-.7-.6-.4-1.4c.3-.8 0-1.7-.7-2.2-.8-.5-1-.3-.4.7.4.8-.4.1-1.9-1.5-1.4-1.6-2.6-3.4-2.6-3.9 0-.6-.3-.7-.7-.4-.3.4-1.2-.1-2-1.1-.9-1-1.2-1.1-.7-.2.4.8-.4.4-1.8-1-1.3-1.4-2.3-2.8-2.1-3.2.2-.4-.6-.9-1.7-1.3-1.9-.6-2.5-1.8-2-4 .1-.6-.2-.7-.6-.3-.4.4-1.7-.3-2.8-1.5-1.2-1.3-2.8-2.1-3.6-1.9-.8.3-1.2.2-.8-.2.3-.4-1.8-3.3-4.8-6.3-3-3.1-5.4-6-5.4-6.6 0-.5-.7-.6-1.6-.3-.8.3-1.2.2-.9-.3.3-.5-.4-1.2-1.5-1.6-1.1-.4-1.9-.9-1.7-1.3.2-.4-.8-1.8-2.1-3.2-1.4-1.4-2.1-1.9-1.7-1.1.5.9.4 1.2-.3.7-.7-.4-1.2-1.3-1.2-1.9 0-1.5-3.6-4.8-4.4-4-.3.4-.6-.1-.6-.9 0-.9-.8-2.2-1.7-2.9-1.5-1.2-1.6-1.2-.8.1.4.8-.1.6-1.2-.5-1.1-1.1-1.9-2.2-1.8-2.5.1-.3-.6-1.2-1.5-2.1-1.6-1.5-3.7.3-31.5 28.1z" fill="#33ACFF"/><g fill="#3FB8FF"><path d="M3056 3391c-171-172-237-244-233-255 4-9 11-16 17-16s9-3 7-7c-3-5 5-17 16-28s16-13 12-5c-8 13-7 13 8 1 9-7 17-20 17-29 0-8 3-13 6-9 8 8 44-25 44-40 0-6 5-15 12-19 7-5 8-2 3 7-4 8 3 3 17-11 13-14 23-28 21-32s6-9 17-13 18-11 15-16 1-6 9-3c9 3 16 2 16-3 0-6 24-35 54-66 30-30 51-59 48-63-4-4 0-5 8-2 8 2 24-6 36-19 11-12 24-19 28-15s7 3 6-3c-5-22 1-34 20-40 11-4 19-9 17-13s8-18 21-32c14-14 22-18 18-10-5 9-2 8 7-2 8-10 17-15 20-11 4 3 7 2 7-4 0-5 12-23 26-39 15-16 23-23 19-15-6 10-4 12 4 7 7-5 10-14 7-22s-1-14 4-14 24-14 42-30l33-30 250 250c225 225 248 252 233 264-10 7-14 17-10 21 4 5 2 5-4 2s-34 16-62 42c-28 27-53 46-56 44-2-2-8 10-14 26-6 17-15 31-19 31-5 0-24 16-43 35s-40 35-47 35c-6 0-15 9-18 21-4 11-9 18-12 16-9-10-44 34-37 46 4 7 4 9 0 6-4-4-23 9-42 29-19 19-34 31-34 27s-9 2-20 15-20 27-20 32-4 6-10 3c-5-3-10-1-10 5s-11 15-25 22c-13 6-22 15-19 19 3 5 0 9-5 9-6 0-11 7-11 15s-10 19-21 26c-12 6-42 31-67 55s-50 44-56 44-119-108-250-239zm384 117c0-6-6-5-15 2-8 7-15 14-15 16s7 1 15-2c8-4 15-11 15-16zM2520 1523l-205-208 208 205c192 190 212 210 204 210-1 0-94-93-207-207z" transform="matrix(.1 0 0 -.1 0 512)"/></g><g fill="#4CC5FF"><path d="M3505 3831c-26-12-213-201-199-201 6 0 31-20 56-44s55-49 67-55c11-7 21-18 21-26s5-15 11-15c5 0 8-4 5-9-3-4 6-13 19-19 14-7 25-16 25-22s5-8 10-5c6 3 10 2 10-3s9-19 20-32 20-19 20-15 15-8 34-27c19-20 38-33 42-29 4 3 4 1 0-6-7-12 28-56 37-46 3 2 8-5 12-16 3-12 12-21 18-21 7 0 28-16 47-35s38-35 43-35c4 0 13-14 19-31 6-16 12-28 14-26 3 2 28-17 56-44 28-26 56-45 62-42s8 3 4-2c-4-4 0-14 10-21 15-12-48-78-608-641-610-613-608-611 87 82 765 764 742 737 723 821-7 31-53 82-273 302l-265 265-54 4c-29 1-62-1-73-6z" transform="matrix(.1 0 0 -.1 0 512)"/><path d="M3410 3526c0-2 7-9 15-16 9-7 15-8 15-2 0 5-7 12-15 16-8 3-15 4-15 2zM1210 2893l-235-238 238 235c130 129 237 236 237 237 0 8-22-14-240-234z" transform="matrix(.1 0 0 -.1 0 512)"/></g><path d="M0 256v256h512V0H0v256zm361.7-128c3.7 1.4 53.1 50.6 54.9 54.7.9 2 1.5 6.9 1.5 12.3.1 7.3-.3 9.6-1.9 12.1-1.1 1.7-38.8 40-83.8 85.1C222.5 402.1 231.3 393.6 226.2 395c-8.5 2.2-6.9 3.6-69.5-58.9-31.8-31.7-59-59.6-60.4-62-2.3-3.8-2.6-5.3-2.5-13.2.1-5.6.7-10 1.6-11.7.8-1.5 13.1-14.2 27.3-28.3 27.4-27.3 28.2-27.9 36.1-26.4 3.2.6 8.1 5 33.7 30.6l30 29.9 62.5-62.6c34.4-34.4 63.9-63.2 65.5-64 3.6-1.6 7.4-1.7 11.2-.4z" fill="#FFF"/></svg>